<svg width="52" height="34" viewBox="0 0 52 34" fill="none" xmlns="http://www.w3.org/2000/svg">
<rect x="0.5" width="51" height="34" rx="3.4" fill="white"/>
<path fill-rule="evenodd" clip-rule="evenodd" d="M10.25 11.9005L5.60156 22.1873H11.1663L11.8562 20.5471H13.4331L14.123 22.1873H20.2482V20.9355L20.794 22.1873H23.9625L24.5083 20.909V22.1873H37.2472L38.7962 20.5897L40.2466 22.1873L46.7895 22.2005L42.1265 17.0726L46.7895 11.9005H40.3481L38.8402 13.4685L37.4355 11.9005H23.5772L22.3872 14.5556L21.1693 11.9005H15.6161V13.1097L14.9984 11.9005H10.25ZM29.2729 13.3612H36.5882L38.8256 15.7781L41.1351 13.3612H43.3725L39.973 17.0712L43.3725 20.7383H41.0336L38.7962 18.2934L36.4749 20.7383H29.2729V13.3612ZM31.0794 16.237V14.8883H35.6439L37.6355 17.0432L35.5556 19.21H31.0794V17.7389H35.0702V16.237H31.0794ZM11.3267 13.3612H14.0393L17.1225 20.3368V13.3612H20.094L22.4755 18.3626L24.6703 13.3612H27.6269V20.7427H25.8279L25.8132 14.9586L23.1904 20.7427H21.581L18.9435 14.9586V20.7427H15.2425L14.5408 19.0879H10.7501L10.0499 20.7412H8.06693L11.3267 13.3612ZM11.3974 17.5581L12.6463 14.6101L13.8937 17.5581H11.3974Z" fill="#1F72CD"/>
</svg>
