<svg width="52" height="34" viewBox="0 0 52 34" fill="none" xmlns="http://www.w3.org/2000/svg">
<rect x="0.5" width="51" height="34" rx="3.4" fill="white"/>
<path fill-rule="evenodd" clip-rule="evenodd" d="M24.5174 21.2056V16.9173H26.7307C27.6376 16.9173 28.4031 16.6134 29.0271 16.0141L29.1769 15.8621C30.3168 14.6213 30.2419 12.6882 29.0271 11.5401C28.4197 10.9324 27.5877 10.6031 26.7307 10.62H23.1778V21.2056H24.5174ZM24.5176 15.6173V11.92H26.7645C27.2471 11.92 27.7048 12.1057 28.046 12.4433C28.77 13.1524 28.7867 14.3342 28.0876 15.0686C27.7464 15.4316 27.2638 15.6342 26.7645 15.6173H24.5176Z" fill="#3C4043"/>
<path fill-rule="evenodd" clip-rule="evenodd" d="M35.4256 14.5284C34.8515 13.9966 34.0694 13.7265 33.0792 13.7265C31.8062 13.7265 30.8493 14.1992 30.217 15.1362L31.3985 15.8875C31.8311 15.2459 32.4219 14.9252 33.1707 14.9252C33.645 14.9252 34.1026 15.1024 34.4604 15.4232C34.8099 15.7271 35.0096 16.166 35.0096 16.6303V16.9427C34.4937 16.6556 33.8447 16.5037 33.0459 16.5037C32.114 16.5037 31.3652 16.7232 30.8077 17.1706C30.2503 17.618 29.9674 18.2089 29.9674 18.9602C29.9507 19.6439 30.2419 20.2939 30.7578 20.7329C31.282 21.2056 31.9476 21.4419 32.7298 21.4419C33.6533 21.4419 34.3855 21.0283 34.943 20.201H35.0013V21.2056H36.2826V16.7401C36.2826 15.8031 35.9997 15.0602 35.4256 14.5284ZM31.7898 19.8718C31.5152 19.6692 31.3487 19.34 31.3487 18.9855C31.3487 18.5887 31.5318 18.2595 31.8897 17.9978C32.2558 17.7361 32.7135 17.6011 33.2544 17.6011C34.0034 17.5926 34.5859 17.7615 35.002 18.0991C35.002 18.6731 34.7773 19.1712 34.3363 19.5933C33.9368 19.9984 33.3959 20.2264 32.83 20.2264C32.4555 20.2348 32.0894 20.1082 31.7898 19.8718Z" fill="#3C4043"/>
<path d="M39.1615 24.388L43.6379 13.9628H42.1819L40.1101 19.1628H40.0851L37.9634 13.9628H36.5073L39.4444 20.7413L37.7803 24.388H39.1615Z" fill="#3C4043"/>
<path d="M19.8926 15.9888C19.8926 15.5751 19.8593 15.1615 19.7928 14.7563H14.1432V17.0946H17.3798C17.2467 17.8459 16.814 18.5212 16.1817 18.9433V20.4627H18.112C19.2436 19.4075 19.8926 17.8459 19.8926 15.9888Z" fill="#4285F4"/>
<path d="M14.1434 21.9315C15.7576 21.9315 17.1219 21.3913 18.112 20.4627L16.1817 18.9433C15.6409 19.3147 14.9505 19.5257 14.1434 19.5257C12.5792 19.5257 11.2562 18.4537 10.7819 17.0186H8.79334V18.5887C9.80844 20.64 11.8802 21.9315 14.1434 21.9315Z" fill="#34A853"/>
<path d="M10.7819 17.0186C10.5323 16.2673 10.5325 15.4485 10.7822 14.6888V13.1271H8.79325C7.9361 14.8408 7.9361 16.8667 8.79325 18.5803L10.7819 17.0186Z" fill="#FBBC04"/>
<path d="M14.1434 12.1817C15.0004 12.1648 15.8241 12.494 16.4399 13.0934L18.1539 11.3544C17.0639 10.3246 15.6328 9.759 14.1434 9.77588C11.8802 9.77588 9.80835 11.0759 8.79325 13.1271L10.7819 14.6972C11.2562 13.2537 12.5792 12.1817 14.1434 12.1817Z" fill="#EA4335"/>
</svg>
