<svg width="32" height="32" viewBox="0 0 32 32" fill="none" xmlns="http://www.w3.org/2000/svg">
<g clip-path="url(#clip0_3127_9171)">
<path d="M5.05742 9.33461L4.15104 8.77808C3.9303 9.13834 3.72466 9.51162 3.53906 9.8862L4.4949 10.3587C4.6628 10.0122 4.85308 9.6678 5.05742 9.33461Z" fill="#18181B"/>
<path d="M3.04986 10.9951C2.08543 13.4652 1.85688 16.1617 2.39129 18.7587L3.43564 18.5455C2.94262 16.1492 3.15346 13.6614 4.04293 11.3822L3.04986 10.9951Z" fill="#18181B"/>
<path d="M27.141 1.06911C26.9393 0.978786 26.7024 1.02226 26.5459 1.17844L24.9724 2.75225C19.1905 -1.15858 11.5424 -0.878493 6.0625 3.44518L6.72576 4.28024C11.9631 0.148672 19.3037 -0.0153204 24.7201 3.87859C24.9318 4.03243 25.2238 4.01004 25.4094 3.82548L26.3083 2.92561L25.9811 8.48677L20.4196 8.81372L21.1659 8.06742C21.2831 7.95028 21.3393 7.78525 21.3177 7.621C21.2964 7.45674 21.1995 7.31175 21.0561 7.22872C17.7148 5.30766 13.5749 5.43782 10.3609 7.56503L10.9539 8.45111C13.6199 6.6865 17.0159 6.44754 19.9029 7.82143L18.6743 9.04773C18.5218 9.20027 18.4762 9.42934 18.5587 9.62847C18.6412 9.82787 18.8354 9.95776 19.0512 9.95776C19.0616 9.95828 19.072 9.95828 19.0825 9.95776L26.5168 9.52044C26.7865 9.50483 27.0017 9.28981 27.0179 9.01988L27.4549 1.5853C27.4671 1.36482 27.3425 1.1597 27.141 1.06911Z" fill="#18181B"/>
<path d="M25.3682 28.9476L24.7425 28.0844C19.533 31.8729 12.4769 31.8773 7.26245 28.0956C7.05082 27.9418 6.75876 27.9644 6.57316 28.149L5.67432 29.0478L6.00101 23.4864L11.563 23.1595L10.8167 23.906C10.6995 24.0231 10.6436 24.1879 10.6652 24.3519C10.6868 24.5162 10.7833 24.6609 10.9265 24.7439C14.2589 26.6587 18.3853 26.5351 21.5972 24.424L21.0037 23.5392C18.3405 25.2893 14.9566 25.5215 12.0791 24.1517L13.3052 22.9254C13.4595 22.7687 13.5017 22.5332 13.4114 22.3327C13.3208 22.132 13.1165 22.0076 12.8968 22.0193L5.4627 22.4564C5.19302 22.4722 4.97749 22.6873 4.96161 22.9569L4.5243 30.3918C4.5118 30.6125 4.63675 30.8182 4.83848 30.9087C5.04022 30.9993 5.27684 30.9559 5.43328 30.7994L7.00709 29.2259C12.5696 33.0229 19.9182 32.9134 25.3651 28.9523L25.3682 28.9476Z" fill="#18181B"/>
<path d="M3.30617 25.7332L4.1506 25.0824C0.153615 19.8451 0.0442867 12.6122 3.88093 7.25646C4.03477 7.04457 4.01212 6.75251 3.82756 6.56717L2.92873 5.66833L8.49015 5.99554L8.81684 11.557L8.07054 10.8107C7.9534 10.6933 7.78837 10.6373 7.62412 10.6586C7.45987 10.6803 7.31488 10.7771 7.23184 10.9203C5.31104 14.261 5.44068 18.3999 7.56685 21.6139L8.45267 21.0211C6.68858 18.3551 6.45014 14.9597 7.82481 12.0734L9.05085 13.2997C9.20755 13.4559 9.44443 13.4994 9.64617 13.4088C9.84791 13.3182 9.97285 13.112 9.95984 12.8913L9.52278 5.45723C9.50691 5.18729 9.29189 4.97202 9.02222 4.95588L1.58738 4.51883C1.3669 4.50711 1.16178 4.6318 1.07041 4.83275C0.978783 5.03605 1.0233 5.27449 1.18182 5.43094L2.75537 7.00474C-1.09611 12.7197 -0.874591 20.2543 3.30617 25.7332Z" fill="#18181B"/>
<path d="M23.1656 20.416L23.9119 21.1626C24.0291 21.2797 24.1941 21.3357 24.3584 21.3144C24.5226 21.2927 24.6676 21.1962 24.7506 21.0527C26.5613 17.92 26.5668 14.0602 24.7655 10.9222L23.8422 11.4553C25.3306 14.0466 25.4483 17.2047 24.1566 19.8996L22.9306 18.6707C22.7736 18.5163 22.5383 18.4744 22.3376 18.5647C22.1369 18.6551 22.0125 18.8594 22.0242 19.0791L22.4615 26.5132C22.4771 26.7831 22.6921 26.9984 22.9621 27.0145L30.3967 27.4516H30.4282C30.6437 27.4513 30.8379 27.3214 30.9201 27.1223C31.0024 26.9232 30.9568 26.6938 30.8046 26.5415L29.2308 24.9677C33.0822 19.2527 32.8607 11.7177 28.6799 6.23877L27.8355 6.88979C31.8325 12.1269 31.9421 19.36 28.1055 24.7158C27.9516 24.9274 27.9743 25.2195 28.1588 25.4051L29.0522 26.3049L23.4908 25.9775L23.1656 20.416Z" fill="#18181B"/>
<path d="M15.9897 18.6521C17.4618 18.6521 18.6553 17.4586 18.6553 15.9866C18.6553 14.5143 17.4618 13.321 15.9897 13.321C14.5177 13.321 13.3242 14.5143 13.3242 15.9866C13.326 17.4578 14.5182 18.6503 15.9897 18.6521ZM15.9897 14.3873C16.873 14.3873 17.5891 15.1031 17.5891 15.9866C17.5891 16.8698 16.873 17.5859 15.9897 17.5859C15.1065 17.5859 14.3904 16.8698 14.3904 15.9866C14.3904 15.1031 15.1065 14.3873 15.9897 14.3873Z" fill="#18181B"/>
<path d="M10.1269 14.3873C9.83245 14.3873 9.59375 14.626 9.59375 14.9204V17.0528C9.59375 17.3472 9.83245 17.5859 10.1269 17.5859H10.9083C11.0023 17.8835 11.122 18.1724 11.2667 18.4488L10.7133 19.0023C10.5051 19.2105 10.5051 19.5479 10.7133 19.7561L12.2215 21.2643C12.4295 21.4723 12.7671 21.4723 12.9751 21.2643L13.5285 20.7114C13.8052 20.8559 14.0939 20.9756 14.3917 21.0691V21.8508C14.3917 22.1452 14.6304 22.3839 14.9248 22.3839H17.0572C17.3516 22.3839 17.5903 22.1452 17.5903 21.8508V21.0691C17.8881 20.9754 18.1768 20.8554 18.4535 20.7109L19.0069 21.2643C19.2149 21.4723 19.5525 21.4723 19.7605 21.2643L21.2687 19.7561C21.4769 19.5479 21.4769 19.2105 21.2687 19.0023L20.7153 18.4488C20.86 18.1724 20.9798 17.8835 21.0737 17.5859H21.8552C22.1496 17.5859 22.3883 17.3472 22.3883 17.0528V14.9204C22.3883 14.626 22.1496 14.3873 21.8552 14.3873H21.0737C20.9798 14.0895 20.8598 13.8006 20.7148 13.5241L21.2687 12.9707C21.4769 12.7625 21.4769 12.4251 21.2687 12.2169L19.7605 10.7087C19.5525 10.5007 19.2149 10.5007 19.0069 10.7087L18.4535 11.2616C18.1768 11.1171 17.8881 10.9976 17.5903 10.9039V10.1225C17.5903 9.82806 17.3516 9.58936 17.0572 9.58936H14.9248C14.6304 9.58936 14.3917 9.82806 14.3917 10.1225V10.9039C14.0939 10.9976 13.8052 11.1176 13.5285 11.2621L12.9751 10.7087C12.7671 10.5007 12.4295 10.5007 12.2215 10.7087L10.7133 12.2169C10.5051 12.4251 10.5051 12.7625 10.7133 12.9707L11.2662 13.5241C11.1217 13.8008 11.002 14.0895 10.9083 14.3873H10.1269ZM11.3157 15.4535C11.5648 15.4538 11.7806 15.2815 11.836 15.0386C11.9422 14.5713 12.1276 14.1254 12.3834 13.7204C12.5165 13.5096 12.4857 13.2349 12.3093 13.0587L11.8446 12.5938L12.5985 11.84L13.0631 12.3049C13.2393 12.4811 13.5139 12.5121 13.7248 12.379C14.1298 12.1229 14.5757 11.9378 15.0432 11.8316C15.2858 11.7762 15.4582 11.5601 15.4579 11.3113V10.6556H16.5241V11.3113C16.5239 11.5601 16.6962 11.7762 16.9388 11.8316C17.4063 11.9378 17.8519 12.1229 18.2572 12.379C18.4681 12.5121 18.7427 12.4811 18.9189 12.3049L19.3836 11.84L20.1374 12.5938L19.6725 13.0587C19.4965 13.2347 19.4658 13.509 19.5986 13.7199C19.8545 14.1249 20.0395 14.5708 20.146 15.0381C20.2009 15.2809 20.4167 15.4533 20.6658 15.4535H21.3221V16.5197H20.6658C20.4167 16.5197 20.2009 16.692 20.146 16.9349C20.0395 17.4022 19.8545 17.8481 19.5986 18.2534C19.4658 18.4639 19.4965 18.7383 19.6725 18.9143L20.1374 19.3792L19.3836 20.133L18.9189 19.6681C18.7427 19.4919 18.4681 19.4612 18.2572 19.5939C17.8519 19.8501 17.4063 20.0351 16.9388 20.1416C16.6962 20.1968 16.5239 20.4129 16.5241 20.662V21.3177H15.4579V20.662C15.4582 20.4129 15.2858 20.1968 15.0432 20.1416C14.5757 20.0351 14.1298 19.8501 13.7248 19.5939C13.5139 19.4612 13.2393 19.4919 13.0631 19.6681L12.5985 20.133L11.8446 19.3792L12.3093 18.9143C12.4857 18.7383 12.5165 18.4634 12.3834 18.2528C12.1276 17.8475 11.9422 17.4016 11.836 16.9344C11.7806 16.6915 11.5648 16.5195 11.3157 16.5197H10.66V15.4535H11.3157Z" fill="#18181B"/>
</g>
<defs>
<clipPath id="clip0_3127_9171">
<rect width="32" height="32" fill="white"/>
</clipPath>
</defs>
</svg>
