<svg width="25" height="24" viewBox="0 0 25 24" fill="none" xmlns="http://www.w3.org/2000/svg">
<path fill-rule="evenodd" clip-rule="evenodd" d="M6.57382 1.99653C6.60146 1.99883 6.62941 2 6.65764 2H16.72C19.5515 2 21.49 3.78512 21.49 5.79936V12.8642L19.3638 12.8743L13.7942 21.5139C13.4513 22.0016 12.8989 22.107 12.3973 21.9035C11.8974 21.7007 11.6033 21.259 11.7207 20.6887C11.7207 20.6887 11.7248 20.6696 11.7399 20.6224C11.7541 20.5778 11.7742 20.5207 11.8007 20.4503C11.8539 20.3093 11.926 20.1349 12.0131 19.9349C12.187 19.5356 12.4082 19.0639 12.6285 18.6072C12.8481 18.1521 13.0635 17.7191 13.2241 17.3995C13.3044 17.2398 13.3708 17.1088 13.4171 17.0179L13.4705 16.9132L13.4886 16.8778L13.4941 16.8669C13.917 16.0199 13.9985 15.0473 13.6022 14.2302C13.1849 13.3699 12.3241 12.8656 11.2831 12.8805L6.59982 12.8718C6.58262 12.8693 6.56005 12.8658 6.53263 12.8611C6.44923 12.8466 6.32281 12.8211 6.168 12.7787C5.85491 12.6929 5.44572 12.5434 5.04426 12.2916C4.28481 11.8153 3.48999 10.9457 3.48999 9.19109C3.48999 7.05099 4.05769 5.16823 4.78334 3.84357C5.1471 3.17955 5.5345 2.68498 5.88081 2.37034C6.2514 2.03364 6.46346 2 6.48999 2C6.51822 2 6.54618 1.99883 6.57382 1.99653ZM5.69221 1.26161C5.97167 1.09061 6.24208 1 6.48999 1H16.72C19.9106 1 22.49 3.05768 22.49 5.79936V13.8594L19.9106 13.8717L14.6253 22.0704C13.3229 23.9608 10.2788 22.7339 10.7412 20.4872C10.8947 19.7377 12.5994 16.4203 12.5994 16.4203C13.2312 15.1548 12.6788 13.8559 11.29 13.8805L6.53588 13.8717C6.53588 13.8717 2.48999 13.4774 2.48999 9.19109C2.48999 5.30714 4.21712 2.16426 5.69221 1.26161Z" fill="black"/>
</svg>
