<svg width="64" height="64" viewBox="0 0 64 64" fill="none" xmlns="http://www.w3.org/2000/svg">
<rect width="64" height="64" rx="32" fill="#F8FAFC"/>
<path fill-rule="evenodd" clip-rule="evenodd" d="M35.3294 35.6688C35.4031 35.8398 35.5657 35.9558 35.7515 35.9696C35.764 35.9705 35.7764 35.971 35.7888 35.971C35.9608 35.971 36.1219 35.8823 36.2135 35.7346L37.425 33.7824L39.6757 34.2433C39.8584 34.2806 40.0464 34.2135 40.1639 34.0691C40.2815 33.9247 40.309 33.7268 40.2354 33.5557L38.5638 29.6747C38.6149 29.653 38.6672 29.6307 38.7224 29.6072C39.5844 29.238 40.0887 28.3644 39.9774 27.4333C39.9567 27.2604 39.9374 27.1065 39.9201 26.9684C39.8507 26.4143 39.8157 26.1362 39.8532 25.9237C39.8907 25.7112 40.0186 25.4618 40.2734 24.9649C40.337 24.841 40.4077 24.703 40.4863 24.5475C40.9094 23.7107 40.7342 22.7172 40.0504 22.0756C39.9235 21.9564 39.8097 21.851 39.7077 21.7562C39.2983 21.3765 39.0928 21.1858 38.985 20.999C38.877 20.8121 38.8147 20.5388 38.6905 19.9945C38.6595 19.8587 38.625 19.7075 38.5853 19.5378C38.3714 18.6248 37.5987 17.9765 36.6624 17.9244C36.4885 17.9147 36.3337 17.907 36.1946 17.9001C35.6369 17.8723 35.3569 17.8584 35.1542 17.7846C34.9514 17.7108 34.728 17.5415 34.2829 17.2043C34.172 17.1202 34.0483 17.0265 33.9089 16.9222C33.1582 16.3603 32.1495 16.3602 31.3988 16.9222C31.2594 17.0265 31.1357 17.1202 31.0248 17.2043C30.5797 17.5415 30.3563 17.7108 30.1535 17.7846C29.9508 17.8584 29.6708 17.8723 29.1131 17.9001C28.974 17.907 28.8192 17.9147 28.6453 17.9244C27.709 17.9765 26.9362 18.6249 26.7224 19.5378C26.6827 19.7075 26.6482 19.8587 26.6172 19.9945C26.493 20.5388 26.4307 20.8122 26.3227 20.999C26.2149 21.1858 26.0094 21.3765 25.6 21.7562C25.4979 21.851 25.3842 21.9564 25.2573 22.0756C24.5736 22.7173 24.3984 23.7107 24.8214 24.5476C24.8999 24.703 24.9707 24.8409 25.0342 24.9648C25.289 25.4617 25.4169 25.7112 25.4544 25.9237C25.4919 26.1361 25.457 26.4142 25.3875 26.9682C25.3702 27.1064 25.3509 27.2603 25.3302 27.4333C25.219 28.3644 25.7233 29.238 26.5853 29.6072C26.7454 29.6757 26.8883 29.736 27.0166 29.79C27.0556 29.8065 27.0926 29.8221 27.1287 29.8373L25.0783 34.2413C24.9997 34.4102 25.0215 34.6087 25.1347 34.7566C25.248 34.9044 25.4341 34.9772 25.6177 34.9449L27.881 34.5495L29.0353 36.5359C29.1251 36.6903 29.29 36.7847 29.4675 36.7847C29.475 36.7847 29.4827 36.7845 29.4902 36.7842C29.6764 36.7757 29.8423 36.6645 29.9209 36.4957L31.9615 32.1127C32.2889 32.0143 32.4873 31.9647 32.654 31.9647C32.8697 31.9647 33.1376 32.0473 33.6712 32.212C33.733 32.2311 33.7984 32.2513 33.8669 32.2723L35.3294 35.6688ZM37.2842 32.7328C37.079 32.6908 36.8694 32.7811 36.759 32.959L35.8689 34.3933L35.0192 32.4203C35.6024 32.3393 36.1362 32.0125 36.4775 31.4907C36.5728 31.3448 36.6569 31.2146 36.7325 31.0976C37.0354 30.6285 37.1874 30.393 37.3527 30.2543C37.4269 30.192 37.5201 30.1358 37.6465 30.0731L38.9379 33.0714L37.2842 32.7328ZM29.4182 35.2052L28.5702 33.7457C28.4649 33.5647 28.258 33.4685 28.0518 33.5044L26.3889 33.7949L28.0125 30.3077C28.1576 30.4518 28.3075 30.6837 28.5748 31.0977C28.6504 31.2147 28.7345 31.3449 28.8298 31.4907C29.2517 32.1358 29.9675 32.4834 30.7075 32.436L29.4182 35.2052ZM32.6536 30.9642C32.3134 30.9642 31.973 31.0617 31.3415 31.2565C31.21 31.2971 31.0638 31.3422 30.8992 31.392C30.4231 31.5357 29.9391 31.3598 29.6667 30.9433C29.5725 30.7994 29.4894 30.6707 29.4149 30.5552C28.6978 29.4448 28.6227 29.3818 27.4046 28.8685C27.2779 28.8152 27.1368 28.7557 26.9787 28.6879C26.5212 28.492 26.2638 28.0461 26.3229 27.552C26.3433 27.3812 26.3624 27.2291 26.3795 27.0927C26.5439 25.7813 26.5269 25.6847 25.9237 24.5084C25.8609 24.386 25.7911 24.2498 25.7135 24.0964C25.489 23.6523 25.5785 23.1453 25.9414 22.8047C26.0668 22.687 26.179 22.5829 26.2799 22.4893C27.2489 21.5904 27.2979 21.5055 27.5919 20.2169C27.6225 20.0828 27.6565 19.9335 27.6958 19.7659C27.8092 19.2814 28.2037 18.9505 28.7005 18.9228C28.8723 18.9133 29.0252 18.9057 29.1626 18.8988C30.4827 18.8331 30.575 18.7995 31.6285 18.0013C31.7381 17.9183 31.8602 17.8258 31.9979 17.7227C32.3963 17.4245 32.911 17.4245 33.3095 17.7227C33.4472 17.8258 33.5692 17.9183 33.6789 18.0013C34.7324 18.7995 34.8246 18.8331 36.1447 18.8988C36.282 18.9057 36.435 18.9133 36.6068 18.9228C37.1037 18.9505 37.498 19.2814 37.6115 19.7659C37.6508 19.9334 37.6849 20.0827 37.7154 20.2168C38.0094 21.5054 38.0584 21.5904 39.0275 22.4893C39.1283 22.5828 39.2405 22.687 39.366 22.8047C39.7289 23.1452 39.8182 23.6522 39.5937 24.0963C39.5162 24.2498 39.4463 24.3862 39.3835 24.5085C38.7804 25.6847 38.7634 25.7813 38.9279 27.0928C38.9449 27.2292 38.964 27.3812 38.9844 27.5519C39.0435 28.046 38.786 28.492 38.3286 28.6878C38.1705 28.7555 38.0294 28.815 37.9027 28.8685C36.6847 29.3818 36.6095 29.4448 35.8925 30.5552C35.8179 30.6707 35.7349 30.7993 35.6407 30.9433C35.3684 31.3598 34.8847 31.536 34.4082 31.392C34.2435 31.3422 34.0972 31.297 33.9659 31.2565C33.3342 31.0617 32.9939 30.9642 32.6536 30.9642ZM37.6159 24.4703C37.6159 21.7341 35.3899 19.508 32.6536 19.508C29.9174 19.508 27.6914 21.7341 27.6914 24.4703C27.6914 27.2066 29.9174 29.4327 32.6536 29.4327C35.3898 29.4327 37.6159 27.2067 37.6159 24.4703ZM32.6535 28.4327C30.4687 28.4327 28.6913 26.6552 28.6913 24.4703C28.6913 22.2855 30.4687 20.508 32.6535 20.508C34.8384 20.508 36.6159 22.2855 36.6159 24.4703C36.6159 26.6552 34.8384 28.4327 32.6535 28.4327ZM35.3997 23.2914L31.9854 26.39C31.8899 26.4767 31.7695 26.5197 31.6494 26.5197C31.5212 26.5197 31.3932 26.4707 31.2958 26.3733L29.89 24.9675C29.6948 24.7723 29.6948 24.4557 29.89 24.2605C30.0854 24.0652 30.4019 24.0652 30.5972 24.2605L31.6661 25.3294L34.7277 22.551C34.9321 22.3655 35.2484 22.3807 35.4339 22.5852C35.6195 22.7896 35.6042 23.1058 35.3997 23.2914ZM44.8919 39.6737C45.5509 39.0147 45.8856 38.1834 45.8598 37.2696L45.6163 28.6738C45.5923 27.825 44.7484 27.0644 43.8385 27.0644C43.8297 27.0644 43.821 27.0645 43.8124 27.0646C43.3684 27.0717 41.921 27.3108 41.9315 30.0892L41.9493 34.7585C41.9497 34.8652 41.943 34.9689 41.9291 35.07C41.8939 35.0278 41.8561 34.9867 41.8159 34.9464C41.1987 34.3293 40.1881 34.3215 39.515 34.9286C39.4982 34.9437 39.4825 34.9598 39.468 34.977C38.7148 35.8675 37.7894 36.6475 37.0457 37.2742C36.7849 37.494 36.5386 37.7016 36.3364 37.8838C35.4883 38.6482 35.3751 39.7014 35.3762 40.6308L35.3802 43.9562L34.949 43.9525C34.6571 43.9498 34.382 44.0616 34.1732 44.2667C33.9645 44.4719 33.8481 44.7455 33.8456 45.0371L33.8344 46.3378C33.8319 46.6294 33.9435 46.905 34.1487 47.1137C34.3539 47.3225 34.6275 47.4388 34.919 47.4413L41.6763 47.4993C41.6795 47.4993 41.6827 47.4994 41.6859 47.4994C41.9739 47.4994 42.2457 47.388 42.4521 47.185C42.6609 46.9798 42.7772 46.7063 42.7797 46.4147L42.7909 45.114C42.7934 44.8224 42.6817 44.5468 42.4765 44.3381C42.2714 44.1293 41.9978 44.013 41.7062 44.0105L41.1503 44.0058V43.4152L44.8919 39.6737ZM41.7909 45.1054L41.7797 46.4062C41.7794 46.4375 41.764 46.4593 41.751 46.472C41.7382 46.4847 41.718 46.4996 41.6848 46.4995L34.9275 46.4414C34.8962 46.4412 34.8745 46.4257 34.8618 46.4128C34.8491 46.3998 34.834 46.3779 34.8344 46.3465L34.8455 45.0458C34.8458 45.0144 34.8612 44.9927 34.8742 44.98C34.8869 44.9674 34.9087 44.9525 34.9395 44.9525L41.6977 45.0105C41.7487 45.011 41.7914 45.0544 41.7909 45.1054ZM36.3802 43.9648L36.3762 40.6297C36.375 39.6112 36.5574 39.031 37.0059 38.6267C37.1957 38.4556 37.4248 38.2625 37.69 38.039C38.4545 37.3947 39.4042 36.5943 40.2068 35.652C40.4875 35.4166 40.8707 35.4155 41.1087 35.6536C41.3621 35.9069 41.3624 36.2083 41.1109 36.5494C40.7133 36.9963 40.2953 37.4011 39.853 37.8291C39.6407 38.0346 39.421 38.2471 39.1995 38.4687C39.0043 38.6639 39.0043 38.9805 39.1996 39.1757C39.2972 39.2733 39.4251 39.3222 39.5531 39.3222C39.6811 39.3222 39.8091 39.2733 39.9067 39.1757C40.1224 38.96 40.3389 38.7503 40.5484 38.5477C41.0105 38.1005 41.447 37.6781 41.8745 37.1957C41.8768 37.1932 42.2094 36.7863 42.2094 36.7863C42.7101 36.1699 42.9521 35.5053 42.9493 34.7548L42.9315 30.0854C42.9268 28.8478 43.2705 28.0735 43.8284 28.0645C43.8318 28.0645 43.8351 28.0645 43.8385 28.0645C44.2098 28.0645 44.6079 28.3892 44.6167 28.7022L44.8602 37.298C44.8783 37.939 44.651 38.5004 44.1847 38.9666L40.2967 42.8546C40.203 42.9483 40.1503 43.0755 40.1503 43.2081V43.9972L36.3802 43.9648ZM35.3265 45.5543C35.409 45.3468 35.644 45.2455 35.8515 45.328C36.0589 45.4105 36.1602 45.6455 36.0778 45.853C35.9953 46.0604 35.7603 46.1617 35.5529 46.0792C35.3454 45.9967 35.244 45.7617 35.3265 45.5543ZM29.8246 44.2668C29.6159 44.0616 29.3401 43.9503 29.0487 43.9526L28.6176 43.9563L28.6216 40.6309C28.6227 39.7015 28.5095 38.6483 27.6615 37.884C27.4594 37.7017 27.213 37.4942 26.9522 37.2744C26.2086 36.6477 25.2831 35.8677 24.5299 34.9772C24.5154 34.96 24.4997 34.9438 24.483 34.9287C23.8095 34.3217 22.7989 34.3295 22.182 34.9465C22.1417 34.9868 22.104 35.028 22.0688 35.0701C22.0549 34.969 22.0482 34.8654 22.0486 34.7587L22.0664 30.0892C22.0769 27.3109 20.6295 27.0718 20.1855 27.0647C20.1768 27.0645 20.1682 27.0645 20.1594 27.0645C19.2495 27.0645 18.4055 27.8251 18.3816 28.6738L18.1381 37.2697C18.1123 38.1835 18.447 39.0148 19.106 39.6737L22.8475 43.4153V44.0059L22.2916 44.0107C22 44.0132 21.7264 44.1295 21.5213 44.3382C21.3161 44.547 21.2045 44.8225 21.207 45.1141L21.2182 46.4148C21.2207 46.7064 21.337 46.98 21.5457 47.1852C21.7522 47.3881 22.0239 47.4995 22.312 47.4995C22.3152 47.4995 22.3184 47.4995 22.3215 47.4995L29.0788 47.4414C29.3704 47.4389 29.644 47.3226 29.8491 47.1138C30.0543 46.9051 30.1659 46.6295 30.1634 46.338L30.1522 45.0372C30.1498 44.7457 30.0334 44.472 29.8246 44.2668ZM23.8475 43.2081C23.8475 43.0755 23.7949 42.9483 23.7011 42.8546L19.813 38.9665C19.3468 38.5003 19.1195 37.939 19.1377 37.298L19.3812 28.7021C19.3901 28.3862 19.7979 28.0591 20.1695 28.0645C20.7274 28.0735 21.071 28.8478 21.0664 30.0853L21.0485 34.7548C21.0457 35.5053 21.2877 36.1698 21.7893 36.7873L22.1103 37.1803C22.1125 37.183 22.1211 37.1932 22.1234 37.1957C22.5509 37.6781 22.9874 38.1005 23.4495 38.5477C23.659 38.7504 23.8755 38.96 24.0912 39.1757C24.1889 39.2733 24.3168 39.3222 24.4448 39.3222C24.5727 39.3222 24.7007 39.2733 24.7983 39.1757C24.9936 38.9805 24.9936 38.6639 24.7984 38.4687C24.5769 38.2472 24.3572 38.0346 24.1449 37.8291C23.7026 37.401 23.2846 36.9963 22.887 36.5494C22.6355 36.2083 22.6358 35.907 22.8892 35.6537C23.1274 35.4155 23.5104 35.4166 23.7912 35.652C24.5937 36.5944 25.5433 37.3947 26.3079 38.0391C26.5731 38.2627 26.8022 38.4557 26.992 38.6268C27.4405 39.031 27.6229 39.6113 27.6217 40.6297L27.6177 43.9649L23.8476 43.9973L23.8475 43.2081ZM29.136 46.4128C29.1233 46.4258 29.1015 46.4412 29.0702 46.4415L22.313 46.4995C22.281 46.4996 22.2596 46.4848 22.2467 46.472C22.2338 46.4593 22.2184 46.4377 22.2181 46.4062L22.2069 45.1055C22.2066 45.0741 22.2217 45.0521 22.2344 45.0392C22.247 45.0263 22.2688 45.0108 22.3001 45.0106L29.0573 44.9525C29.0882 44.9525 29.1109 44.9675 29.1236 44.98C29.1365 44.9927 29.152 45.0145 29.1522 45.0458L29.1634 46.3466C29.1637 46.378 29.1487 46.3999 29.136 46.4128ZM28.6713 45.5543C28.7538 45.7617 28.6525 45.9967 28.445 46.0792C28.2376 46.1617 28.0025 46.0604 27.9201 45.853C27.8376 45.6455 27.9389 45.4105 28.1464 45.328C28.3538 45.2455 28.5888 45.3468 28.6713 45.5543Z" fill="#18181B"/>
</svg>
