<svg width="12" height="7" viewBox="0 0 12 7" fill="none" xmlns="http://www.w3.org/2000/svg">
<path d="M10.6465 0.646223C10.693 0.599767 10.7481 0.562918 10.8088 0.537776C10.8695 0.512635 10.9346 0.499694 11.0003 0.499694C11.066 0.499694 11.131 0.512635 11.1917 0.537776C11.2524 0.562918 11.3076 0.599767 11.354 0.646223C11.4005 0.692678 11.4373 0.747828 11.4625 0.808525C11.4876 0.869221 11.5006 0.934275 11.5006 0.999973C11.5006 1.06567 11.4876 1.13072 11.4625 1.19142C11.4373 1.25212 11.4005 1.30727 11.354 1.35372L6.35403 6.35372C6.30759 6.40021 6.25245 6.43709 6.19175 6.46225C6.13105 6.48741 6.06599 6.50037 6.00028 6.50037C5.93457 6.50037 5.86951 6.48741 5.80881 6.46225C5.74811 6.43709 5.69296 6.40021 5.64653 6.35372L0.646528 1.35372C0.552708 1.2599 0.5 1.13265 0.5 0.999973C0.5 0.867291 0.552708 0.740043 0.646528 0.646223C0.740348 0.552402 0.867596 0.499694 1.00028 0.499694C1.13296 0.499694 1.26021 0.552402 1.35403 0.646223L6.00028 5.2931L10.6465 0.646223Z" fill="#374151"/>
</svg>
