<svg width="25" height="24" viewBox="0 0 25 24" fill="none" xmlns="http://www.w3.org/2000/svg">
<path fill-rule="evenodd" clip-rule="evenodd" d="M18.4062 22.0035C18.3785 22.0012 18.3506 22 18.3223 22H8.25998C5.4285 22 3.48999 20.2149 3.48999 18.2006V11.1358L5.61619 11.1257L11.1858 2.48607C11.5287 1.99839 12.0811 1.89304 12.5827 2.09649C13.0826 2.29928 13.3767 2.74099 13.2593 3.31126C13.2594 3.31115 13.2592 3.3121 13.2591 3.31236C13.2585 3.31491 13.2537 3.33504 13.2401 3.37764C13.2259 3.42217 13.2058 3.47934 13.1793 3.54966C13.1261 3.6907 13.054 3.86512 12.9669 4.06508C12.793 4.46435 12.5718 4.93612 12.3515 5.39277C12.1319 5.8479 11.9165 6.28088 11.7559 6.60055C11.6756 6.76021 11.6092 6.89122 11.5629 6.98211L11.5095 7.08684L11.4914 7.12224L11.4859 7.13306C11.063 7.98011 10.9815 8.95271 11.3778 9.76978C11.7951 10.6301 12.656 11.1344 13.697 11.1195L18.3802 11.1282C18.3974 11.1307 18.4199 11.1342 18.4474 11.1389C18.5308 11.1534 18.6572 11.1789 18.812 11.2213C19.1251 11.3071 19.5343 11.4566 19.9357 11.7084C20.6952 12.1847 21.49 13.0543 21.49 14.8089C21.49 16.949 20.9223 18.8318 20.1966 20.1564C19.8329 20.8204 19.4455 21.315 19.0992 21.6297C18.7286 21.9664 18.5165 22 18.49 22C18.4618 22 18.4338 22.0012 18.4062 22.0035ZM19.2878 22.7384C19.0083 22.9094 18.7379 23 18.49 23H8.25998C5.0694 23 2.48999 20.9423 2.48999 18.2006V10.1406L5.0694 10.1283L10.3547 1.92961C11.6571 0.0392239 14.7012 1.26613 14.2388 3.51283C14.0853 4.26232 12.3806 7.57971 12.3806 7.57971C11.7488 8.84524 12.3012 10.1441 13.69 10.1195L18.4441 10.1283C18.4441 10.1283 22.49 10.5226 22.49 14.8089C22.49 18.6929 20.7629 21.8357 19.2878 22.7384ZM18.3418 11.123C18.3408 11.1229 18.3409 11.1229 18.3418 11.123V11.123Z" fill="black"/>
</svg>
