<svg width="32" height="32" viewBox="0 0 32 32" fill="none" xmlns="http://www.w3.org/2000/svg">
<g clip-path="url(#clip0_3127_9116)">
<path d="M31.5444 8.40288C31.5444 8.40288 31.5444 8.40288 31.5443 8.40288L31.5432 8.40181L29.4777 8.10712C29.1874 8.06577 28.9856 7.7969 29.0269 7.50659C29.0468 7.36707 29.1213 7.24123 29.234 7.15667L30.9034 5.90463C31.138 5.72868 31.1856 5.39589 31.0096 5.16126L29.0981 2.61257C28.9221 2.37795 28.5893 2.33042 28.3547 2.50638L26.6859 3.75842C26.4522 3.9357 26.1192 3.89004 25.9419 3.65641C25.8558 3.54298 25.8189 3.39968 25.8395 3.25877L26.1347 1.19327C26.1763 0.902957 25.9747 0.633951 25.6845 0.592269C25.6843 0.592269 25.6841 0.592203 25.6839 0.592203L22.532 0.141934C22.2418 0.100252 21.9726 0.301758 21.931 0.59207C21.931 0.592136 21.931 0.592136 21.931 0.592203L21.6357 2.6577C21.5944 2.94802 21.3255 3.14985 21.0352 3.1085C20.8957 3.08866 20.7698 3.01412 20.6853 2.90142L19.4338 1.23203C19.2578 0.997405 18.925 0.949882 18.6904 1.12583L17.0948 2.32319C16.3729 2.24646 15.645 2.24646 14.9231 2.32319C10.1957 2.86352 6.48848 6.63359 6.02765 11.3694C6.01332 11.5197 6.00801 11.6689 6.00057 11.8181H5.84128C5.58933 11.8186 5.37236 11.9961 5.32198 12.2429L4.95508 13.9877L3.48534 12.9741C3.2744 12.8285 2.98954 12.8545 2.80834 13.0357L1.21541 14.6286C1.03448 14.8097 1.00859 15.0942 1.15381 15.305L2.16267 16.7721L0.417349 17.139C0.173232 17.1925 -0.000529764 17.409 1.21357e-06 17.6589V19.7828C-0.000131531 20.0339 0.175821 20.2508 0.421597 20.3026L2.16692 20.6695L1.15806 22.1366C1.01284 22.3475 1.03873 22.6319 1.21966 22.8131L2.81259 24.406C2.99378 24.5872 3.27865 24.6131 3.48958 24.4676L4.95667 23.4561L5.32358 25.2014C5.37395 25.4482 5.59092 25.6257 5.84287 25.6262H7.96678C8.21793 25.6263 8.43484 25.4504 8.48661 25.2046L8.85351 23.4593L10.3206 24.4681C10.5315 24.6133 10.8159 24.5875 10.9971 24.4065L11.8217 23.5793V25.0926C11.8241 25.8479 12.2287 26.5448 12.8836 26.9212V29.8713C12.8836 31.0443 13.8345 31.9953 15.0075 31.9953H17.1314C18.3044 31.9953 19.2554 31.0443 19.2554 29.8713V26.9212C19.9102 26.5448 20.3149 25.8479 20.3173 25.0926V22.9909C20.3317 22.1067 20.7943 21.2903 21.5455 20.8235C21.9861 20.5376 22.404 20.218 22.7954 19.8677L22.0871 19.0766C21.7369 19.3904 21.3629 19.6764 20.9683 19.932C19.914 20.5937 19.2686 21.7462 19.2554 22.9909V25.0926C19.2554 25.6791 18.7799 26.1545 18.1934 26.1545H13.9456C13.3591 26.1545 12.8836 25.6791 12.8836 25.0926V22.9469C12.8714 21.7257 12.2361 20.5954 11.1994 19.95C6.99091 17.3056 5.72294 11.7504 8.36734 7.5419C10.0081 4.93075 12.8715 3.34147 15.9553 3.33045C15.9474 3.34937 15.9405 3.36868 15.9346 3.38833C15.9149 3.52771 15.9514 3.66928 16.036 3.78178L17.2876 5.45064C17.4195 5.62142 17.4322 5.85598 17.3194 6.04003C17.2108 6.22521 17.0009 6.32622 16.7884 6.29543L14.7229 6.0002C14.4326 5.95859 14.1636 6.16016 14.1219 6.45041C14.1219 6.45061 14.1219 6.45081 14.1219 6.451L13.6711 9.60448C13.6295 9.89472 13.831 10.1638 14.1213 10.2055C14.1215 10.2055 14.1217 10.2055 14.1219 10.2055L16.1874 10.5008C16.4777 10.5421 16.6795 10.811 16.6382 11.1013C16.6183 11.2408 16.5438 11.3667 16.4311 11.4512L14.7622 12.7027C14.5276 12.8787 14.4801 13.2115 14.656 13.4461L16.5675 15.9948C16.7435 16.2294 17.0763 16.2769 17.3109 16.101L18.9803 14.8495C19.2151 14.6738 19.5479 14.7218 19.7235 14.9567C19.8076 15.0691 19.8437 15.2102 19.824 15.3491L19.5293 17.4146C19.4877 17.7049 19.6892 17.974 19.9795 18.0157C19.9795 18.0157 19.9795 18.0157 19.9796 18.0157L23.1336 18.4665C23.1584 18.4697 23.1835 18.4713 23.2085 18.4713C23.4728 18.4716 23.6971 18.2774 23.7347 18.0157L24.0294 15.9502C24.0707 15.6599 24.3396 15.458 24.6299 15.4994C24.7694 15.5192 24.8953 15.5938 24.9798 15.7065L26.2319 17.3753C26.4078 17.61 26.7406 17.6575 26.9752 17.4815L29.5239 15.57C29.7585 15.3941 29.8061 15.0613 29.6301 14.8266L28.3786 13.1578C28.2473 12.9867 28.2346 12.7526 28.3467 12.5684C28.453 12.3808 28.6649 12.2791 28.8777 12.3135L30.9432 12.6082C31.2335 12.6499 31.5026 12.4483 31.5443 12.1581C31.5443 12.158 31.5443 12.158 31.5443 12.1579L31.9946 9.00394C32.0362 8.71363 31.8347 8.44456 31.5444 8.40288ZM13.9456 27.2165H18.1934V28.2784H13.9456V27.2165ZM13.9456 29.3404H18.1934V29.8713C18.1934 30.4579 17.718 30.9333 17.1314 30.9333H15.0075C14.421 30.9333 13.9456 30.4579 13.9456 29.8713V29.3404ZM9.71848 20.1837C10.0084 20.4207 10.3113 20.6415 10.6259 20.8447C11.1276 21.1618 11.5053 21.6415 11.6958 22.2035L10.5569 23.3403L9.45405 22.58C8.97113 22.2472 8.30986 22.3689 7.977 22.8518C7.89722 22.9676 7.84121 23.0981 7.81227 23.2357L7.53404 24.5616H6.2719L5.99367 23.2378C5.87287 22.6639 5.30971 22.2966 4.73579 22.4174C4.5982 22.4463 4.46771 22.5023 4.35189 22.5821L3.24852 23.3403L2.28108 22.375L3.04091 21.2727C3.37403 20.79 3.2527 20.1286 2.76998 19.7955C2.65409 19.7155 2.52347 19.6594 2.38568 19.6304L1.06196 19.3516V18.09L2.38568 17.8113C2.9594 17.6896 3.32591 17.1259 3.20425 16.5521C3.17538 16.416 3.12009 16.2869 3.04144 16.1721L2.28108 15.0666L3.24852 14.1013L4.35242 14.8617C4.83554 15.1941 5.49681 15.072 5.82927 14.5889C5.90891 14.4732 5.9648 14.3429 5.99367 14.2054L6.08659 13.7636C6.17168 14.3754 6.31259 14.9781 6.50766 15.5642C4.76054 15.7724 3.51308 17.3577 3.72135 19.1048C3.92963 20.8519 5.51486 22.0994 7.26198 21.8911C8.31371 21.7656 9.23436 21.1258 9.71848 20.1837ZM8.89387 19.4355C8.49736 20.5376 7.28255 21.1096 6.18044 20.7132C5.07833 20.3167 4.50634 19.1019 4.90278 17.9998C5.2061 17.1566 6.00661 16.5951 6.90264 16.5969C6.90954 16.5969 6.91591 16.5969 6.92281 16.5969C7.41111 17.6498 8.07796 18.6101 8.89387 19.4355ZM30.5652 11.4804L29.0253 11.2606C28.1544 11.1362 27.3476 11.7415 27.2232 12.6123C27.1635 13.0305 27.2723 13.4554 27.5259 13.7934L28.4588 15.0374L26.7597 16.3118L25.8262 15.0682C25.2984 14.3644 24.3 14.2216 23.5962 14.7494C23.2582 15.0028 23.0347 15.3801 22.9749 15.7983L22.7598 17.3403L20.6577 17.0397L20.8775 15.4999C21.0022 14.629 20.3973 13.822 19.5264 13.6973C19.1079 13.6374 18.6829 13.7462 18.3447 13.9999L17.1007 14.9328L15.8263 13.2337L17.0699 12.3002C17.7737 11.7725 17.9165 10.774 17.3887 10.0702C17.1353 9.73224 16.758 9.50877 16.3398 9.4489L14.7999 9.22908L15.1005 7.12694L16.6403 7.34676C17.5112 7.47148 18.3182 6.86656 18.4429 5.99569C18.5028 5.57721 18.394 5.15217 18.1403 4.814L17.2042 3.56886L18.9033 2.29452L19.8368 3.53859C20.3646 4.24247 21.363 4.38524 22.0668 3.85745C22.4048 3.60404 22.6283 3.22671 22.6881 2.8085L22.9079 1.26867L25.0101 1.56867L24.7903 3.1085C24.6659 3.97944 25.2711 4.78626 26.142 4.91064C26.5602 4.97037 26.9851 4.86152 27.323 4.60798L28.5671 3.67506L29.8414 5.37418L28.5974 6.30764C27.8935 6.83543 27.7507 7.83387 28.2785 8.53768C28.5319 8.87564 28.9093 9.09912 29.3275 9.15899L30.8673 9.37881L30.5652 11.4804Z" fill="#3F3F46"/>
<path d="M22.8338 5.05566C20.4878 5.05566 18.5859 6.95749 18.5859 9.30348C18.5859 11.6495 20.4878 13.5513 22.8338 13.5513C25.1797 13.5513 27.0816 11.6495 27.0816 9.30348C27.0789 6.95855 25.1787 5.05825 22.8338 5.05566ZM22.8338 12.4893C21.0742 12.4893 19.6479 11.063 19.6479 9.30348C19.6479 7.54396 21.0742 6.11762 22.8338 6.11762C24.5933 6.11762 26.0196 7.54396 26.0196 9.30348C26.0176 11.0621 24.5924 12.4873 22.8338 12.4893Z" fill="#3F3F46"/>
<path d="M16.601 23.4998H15.5391V25.0927H16.601V23.4998Z" fill="#3F3F46"/>
<path d="M13.7485 18.2848C10.4707 17.0044 8.85155 13.3092 10.1321 10.0314C10.6283 8.76129 11.5188 7.68387 12.6727 6.9575L12.1051 6.05908C8.63146 8.24744 7.58948 12.8374 9.77784 16.3111C10.6253 17.6564 11.8819 18.6945 13.363 19.273C14.674 19.7753 15.5397 21.0337 15.54 22.4376H16.602C16.6036 20.5956 15.4685 18.9437 13.7485 18.2848Z" fill="#3F3F46"/>
<path d="M29.8731 19.7827H26.1562V20.8447H29.8731V19.7827Z" fill="#3F3F46"/>
<path d="M25.9688 22.5603L25.2891 23.3762L28.4752 26.0307L29.1549 25.2148L25.9688 22.5603Z" fill="#3F3F46"/>
<path d="M24.0346 24.0305H22.9727V27.7474H24.0346V24.0305Z" fill="#3F3F46"/>
<path d="M4.79049 8.11694L0.542969 9.17871L0.800364 10.2084L5.04789 9.14663L4.79049 8.11694Z" fill="#3F3F46"/>
<path d="M2.04268 2.8912L1.42578 3.75488L5.14233 6.40949L5.75923 5.54581L2.04268 2.8912Z" fill="#3F3F46"/>
<path d="M7.00148 0.00428788L5.97266 0.267334L7.05864 4.51482L8.08746 4.25178L7.00148 0.00428788Z" fill="#3F3F46"/>
</g>
<defs>
<clipPath id="clip0_3127_9116">
<rect width="32" height="32" fill="white"/>
</clipPath>
</defs>
</svg>
