<svg width="32" height="32" viewBox="0 0 32 32" fill="none" xmlns="http://www.w3.org/2000/svg">
<path d="M26.7523 25.5563L21.4622 20.2672C22.9955 18.4264 23.76 16.0653 23.5969 13.6751C23.4337 11.285 22.3553 9.0497 20.586 7.43436C18.8168 5.81903 16.4928 4.94797 14.0977 5.00241C11.7026 5.05684 9.42066 6.03257 7.72661 7.72661C6.03257 9.42066 5.05684 11.7026 5.00241 14.0977C4.94797 16.4928 5.81903 18.8168 7.43436 20.586C9.0497 22.3553 11.285 23.4337 13.6751 23.5969C16.0653 23.76 18.4264 22.9955 20.2672 21.4622L25.5563 26.7523C25.6348 26.8308 25.728 26.8931 25.8307 26.9356C25.9333 26.9781 26.0432 27 26.1543 27C26.2654 27 26.3753 26.9781 26.4779 26.9356C26.5805 26.8931 26.6738 26.8308 26.7523 26.7523C26.8308 26.6738 26.8931 26.5805 26.9356 26.4779C26.9781 26.3753 27 26.2654 27 26.1543C27 26.0432 26.9781 25.9333 26.9356 25.8307C26.8931 25.728 26.8308 25.6348 26.7523 25.5563ZM6.71383 14.321C6.71383 12.8164 7.15998 11.3457 7.99586 10.0947C8.83174 8.84368 10.0198 7.86865 11.4098 7.29289C12.7999 6.71712 14.3294 6.56647 15.805 6.86C17.2807 7.15352 18.6361 7.87803 19.7 8.94191C20.7639 10.0058 21.4884 11.3612 21.7819 12.8369C22.0755 14.3125 21.9248 15.8421 21.349 17.2321C20.7733 18.6221 19.7983 19.8102 18.5473 20.6461C17.2963 21.482 15.8255 21.9281 14.321 21.9281C12.3041 21.9259 10.3705 21.1237 8.94438 19.6976C7.51825 18.2714 6.71607 16.3378 6.71383 14.321Z" fill="#18181B"/>
</svg>
