<svg width="40" height="40" viewBox="0 0 40 40" fill="none" xmlns="http://www.w3.org/2000/svg">
<path d="M30.4998 10H10.4998C10.0176 10 9.55515 10.1916 9.21417 10.5325C8.8732 10.8735 8.68164 11.336 8.68164 11.8182V28.1818C8.68164 28.664 8.8732 29.1265 9.21417 29.4675C9.55515 29.8084 10.0176 30 10.4998 30H30.4998C30.982 30 31.4445 29.8084 31.7855 29.4675C32.1264 29.1265 32.318 28.664 32.318 28.1818V11.8182C32.318 11.336 32.1264 10.8735 31.7855 10.5325C31.4445 10.1916 30.982 10 30.4998 10ZM30.4998 11.8182V13.6364H10.4998V11.8182H30.4998ZM30.4998 28.1818H10.4998V15.4545H30.4998V28.1818ZM25.9544 18.1818C25.9544 19.6285 25.3797 21.0158 24.3568 22.0388C23.3338 23.0617 21.9465 23.6364 20.4998 23.6364C19.0532 23.6364 17.6658 23.0617 16.6429 22.0388C15.62 21.0158 15.0453 19.6285 15.0453 18.1818C15.0453 17.9407 15.1411 17.7095 15.3115 17.539C15.482 17.3685 15.7133 17.2727 15.9544 17.2727C16.1955 17.2727 16.4267 17.3685 16.5972 17.539C16.7677 17.7095 16.8635 17.9407 16.8635 18.1818C16.8635 19.1462 17.2466 20.0712 17.9285 20.7531C18.6105 21.4351 19.5354 21.8182 20.4998 21.8182C21.4642 21.8182 22.3892 21.4351 23.0711 20.7531C23.7531 20.0712 24.1362 19.1462 24.1362 18.1818C24.1362 17.9407 24.232 17.7095 24.4025 17.539C24.5729 17.3685 24.8042 17.2727 25.0453 17.2727C25.2864 17.2727 25.5176 17.3685 25.6881 17.539C25.8586 17.7095 25.9544 17.9407 25.9544 18.1818Z" fill="#18181B"/>
</svg>
