<svg width="64" height="64" viewBox="0 0 64 64" fill="none" xmlns="http://www.w3.org/2000/svg">
<rect width="64" height="64" rx="32" fill="#F8FAFC"/>
<g clip-path="url(#clip0_3127_9151)">
<path d="M37.6738 20.0069C38.0844 20.8444 38.315 21.7862 38.315 22.7825C38.315 26.2694 35.4881 29.0956 32.0013 29.0956C28.5144 29.0956 25.6875 26.2694 25.6875 22.7825C25.6875 19.2956 28.5144 16.4688 32.0013 16.4688C33.7069 16.4688 35.2537 17.145 36.3894 18.2431" stroke="#18181B" stroke-width="0.8" stroke-miterlimit="10" stroke-linecap="round" stroke-linejoin="round"/>
<path d="M29.8946 19.9412V20.9934M34.1036 19.9412V20.9934M42.5678 42.8894C42.9059 42.4937 43.1803 42.0319 43.3684 41.5137L43.7116 40.5712M35.3003 37.5093L34.9572 38.4525C34.1116 40.775 35.3097 43.3431 37.6322 44.1887C38.1372 44.3725 38.6541 44.46 39.1622 44.46C39.7272 44.46 40.2809 44.3525 40.7966 44.1494M46.2373 38.3699L47.1611 35.832C48.3126 32.6683 46.6813 29.1701 43.5176 28.0186C40.3539 26.8671 36.8557 28.4983 35.7042 31.662L34.7805 34.2M35.7872 23.1551C35.7872 25.2472 34.0912 26.9432 31.9991 26.9432C29.9069 26.9432 28.2109 25.2472 28.2109 23.1551H35.7872Z" stroke="#18181B" stroke-width="0.8" stroke-miterlimit="10" stroke-linecap="round" stroke-linejoin="round"/>
<path d="M36.3569 34.6093C37.5299 36.3501 39.8047 35.2894 39.8047 35.2894C39.488 36.1595 38.2419 36.1987 38.2419 36.1987C41.65 37.4391 44.0898 35.6994 44.0898 35.6994L44.7682 37.6708M36.3569 34.6093L35.4868 34.2926C34.6859 34.001 33.8002 34.414 33.5087 35.215C33.2172 36.0159 33.6302 36.9015 34.4311 37.193L35.3012 37.5097L36.3569 34.6093ZM20.2874 43.6427L20.6306 44.5853C21.4759 46.908 24.0442 48.1056 26.3669 47.2602C28.6897 46.4149 29.8872 43.8465 29.0419 41.5239L28.6987 40.5812M17.0812 34.1582C16.6786 34.9874 16.4692 35.8971 16.4688 36.8189C16.4688 37.5107 16.5875 38.2151 16.8381 38.9032L17.7619 41.4414M18.3681 32.3964C18.9569 31.8364 19.6687 31.3857 20.4812 31.0901C23.645 29.9389 27.1431 31.5701 28.295 34.7339L29.2187 37.2714M44.5827 40.8879L43.7126 40.5712L44.7683 37.6708L45.6384 37.9875C46.4394 38.279 46.8524 39.1646 46.5608 39.9655C46.2693 40.7665 45.3837 41.1794 44.5827 40.8879ZM41.1941 41.0505C40.7647 42.2301 39.4605 42.8383 38.2809 42.409C37.1012 41.9797 36.4931 40.6754 36.9224 39.4958L41.1941 41.0505Z" stroke="#18181B" stroke-width="0.8" stroke-miterlimit="10" stroke-linecap="round" stroke-linejoin="round"/>
<path d="M27.6423 37.6807L28.6979 40.5812L29.5681 40.2645C30.369 39.9729 30.782 39.0874 30.4904 38.2864C30.1989 37.4855 29.3133 37.0726 28.5124 37.3641L27.6423 37.6807ZM27.6423 37.6807L24.7189 36.4172L21.3342 40.1409L21.1106 38.7811L19.2309 40.7422M19.2309 40.7422L18.3608 41.0589C17.5598 41.3504 17.1469 42.2361 17.4384 43.0369C17.7299 43.8379 18.6155 44.2508 19.4164 43.9593L20.2866 43.6426L19.2309 40.7422ZM42.8073 23.7876L43.7002 22.8947M43.7512 25.4394H45.0139M41.1555 22.8438V21.5811M19.9241 28.7582L19.57 27.5462M18.3028 29.7535L17.1953 29.1468M21.8263 28.7241L22.4329 27.6166M22.7952 44.1256C23.2245 45.3052 24.5288 45.9134 25.7084 45.4841C26.8879 45.0547 27.4961 43.7505 27.0668 42.5709L22.7952 44.1256Z" stroke="#18181B" stroke-width="0.8" stroke-miterlimit="10" stroke-linecap="round" stroke-linejoin="round"/>
</g>
<defs>
<clipPath id="clip0_3127_9151">
<rect width="32" height="32" fill="white" transform="translate(16 16)"/>
</clipPath>
</defs>
</svg>
