<svg width="20" height="20" viewBox="0 0 20 20" fill="none" xmlns="http://www.w3.org/2000/svg">
<g clip-path="url(#clip0_2703_4057)">
<path fill-rule="evenodd" clip-rule="evenodd" d="M7.91634 14.1667C11.3681 14.1667 14.1663 11.3684 14.1663 7.91667C14.1663 4.46489 11.3681 1.66667 7.91634 1.66667C4.46456 1.66667 1.66634 4.46489 1.66634 7.91667C1.66634 11.3684 4.46456 14.1667 7.91634 14.1667ZM14.9997 7.91667C14.9997 11.8287 11.8283 15 7.91634 15C4.00432 15 0.833008 11.8287 0.833008 7.91667C0.833008 4.00465 4.00432 0.833336 7.91634 0.833336C11.8283 0.833336 14.9997 4.00465 14.9997 7.91667Z" fill="white"/>
<path fill-rule="evenodd" clip-rule="evenodd" d="M18.8717 19.4613L12.2051 12.7946L12.7944 12.2053L19.4611 18.872L18.8717 19.4613Z" fill="white"/>
</g>
<defs>
<clipPath id="clip0_2703_4057">
<rect width="20" height="20" fill="white"/>
</clipPath>
</defs>
</svg>
