<svg width="32" height="32" viewBox="0 0 32 32" fill="none" xmlns="http://www.w3.org/2000/svg">
<path d="M26.6314 13.8727C26.8455 14.5682 27.4941 15.0752 28.259 15.0752C29.1978 15.0752 29.9616 14.3115 29.9616 13.3727C29.9616 12.4339 29.1978 11.6701 28.259 11.6701C27.4942 11.6701 26.8455 12.1771 26.6314 12.8727H23.2138V11.0456H26.0694C26.2003 11.0456 26.3259 10.9942 26.4193 10.9027L27.4466 9.89625C27.6882 10.028 27.965 10.1029 28.259 10.1029C29.1978 10.1029 29.9616 9.33919 29.9616 8.40038C29.9616 7.46156 29.1978 6.69775 28.259 6.69775C27.3202 6.69775 26.5564 7.46156 26.5564 8.40038C26.5564 8.68194 26.6255 8.9475 26.747 9.18169L25.8653 10.0455H23.2138V9.03869C23.2138 9.01437 23.2129 8.99025 23.212 8.96612L25.2165 8.2245C25.3278 8.18331 25.4209 8.10388 25.479 8.00037L26.8688 5.525C26.9852 5.55019 27.1058 5.56381 27.2296 5.56381C28.1684 5.56381 28.9322 4.8 28.9322 3.86119C28.9322 2.92237 28.1683 2.15856 27.2296 2.15856C26.2908 2.15856 25.527 2.92237 25.527 3.86119C25.527 4.31563 25.7063 4.72875 25.9975 5.03438L24.697 7.35044L22.9158 8.00944C22.5732 7.467 21.9685 7.10569 21.2808 7.10569H21.0695V5.17725C21.0696 2.357 18.7751 0.0625 15.9548 0.0625C13.1344 0.0625 10.8399 2.357 10.8399 5.17725V7.10569H10.6286C9.95197 7.10569 9.35584 7.45544 9.01034 7.98331L7.29972 7.35044L5.99934 5.03444C6.29053 4.72881 6.46984 4.31569 6.46984 3.86125C6.46984 2.92244 5.70603 2.15862 4.76722 2.15862C3.82841 2.15862 3.06466 2.92244 3.06466 3.86125C3.06466 4.80006 3.82841 5.56381 4.76722 5.56381C4.89097 5.56381 5.01159 5.55019 5.12797 5.525L6.51784 8.00037C6.57597 8.10388 6.66903 8.18331 6.78034 8.2245L8.69853 8.93419C8.69666 8.96881 8.69559 9.00362 8.69559 9.03869V10.0455H6.13147L5.24978 9.18169C5.37128 8.9475 5.44041 8.68194 5.44041 8.40038C5.44041 7.46156 4.67659 6.69775 3.73778 6.69775C2.79897 6.69775 2.03522 7.46156 2.03522 8.40038C2.03522 9.33919 2.79903 10.1029 3.73778 10.1029C4.03178 10.1029 4.30859 10.028 4.55022 9.89625L5.57747 10.9027C5.67091 10.9942 5.79653 11.0456 5.92741 11.0456H8.69566V12.8727H5.36541C5.15128 12.1771 4.50272 11.6701 3.73778 11.6701C2.79897 11.6701 2.03522 12.4339 2.03522 13.3727C2.03522 14.3115 2.79903 15.0752 3.73778 15.0752C4.50266 15.0752 5.15122 14.5682 5.36541 13.8727H8.69566V15.6998H5.92734C5.79647 15.6998 5.67084 15.7511 5.57741 15.8427L4.55016 16.8491C4.30859 16.7173 4.03172 16.6424 3.73772 16.6424C2.79891 16.6424 2.03516 17.4062 2.03516 18.345C2.03516 19.2838 2.79897 20.0476 3.73772 20.0476C4.67653 20.0476 5.44034 19.2838 5.44034 18.345C5.44034 18.0634 5.37122 17.7979 5.24972 17.5637L6.13141 16.6999H8.69553V17.7068C8.69553 17.7719 8.69891 17.8364 8.70522 17.8999L6.80034 18.5139C6.68041 18.5526 6.57947 18.6351 6.51778 18.745L5.12791 21.2204C5.01153 21.1952 4.89091 21.1816 4.76716 21.1816C3.82834 21.1816 3.06459 21.9453 3.06459 22.8841C3.06459 23.8229 3.82841 24.5868 4.76716 24.5868C5.70597 24.5868 6.46978 23.8229 6.46978 22.8841C6.46978 22.4297 6.29047 22.0166 5.99928 21.7109L7.29372 19.4055L9.06116 18.8359C9.41253 19.3223 9.98403 19.6397 10.6286 19.6397H14.3241V22.16L13.1986 20.7238C12.4608 19.7824 11.4887 19.7374 10.8978 20.0938C10.3024 20.4529 9.91584 21.2943 10.3945 22.3646C11.2275 24.2271 12.0087 25.5144 12.6364 26.5487C13.4549 27.8976 13.9975 28.7919 14.145 30.0573V31.4375C14.145 31.7136 14.3689 31.9375 14.645 31.9375H22.5555C22.8316 31.9375 23.0555 31.7136 23.0555 31.4375V30.182C24.1788 28.4614 24.3497 25.8774 24.3497 24.4678L24.3498 22.936C24.3498 22.0382 23.6193 21.3078 22.7216 21.3078C22.4725 21.3078 22.2361 21.364 22.0248 21.4645C21.8232 20.7942 21.2003 20.3045 20.4652 20.3045C20.2192 20.3045 19.9857 20.3593 19.7764 20.4574C19.6849 20.1321 19.4938 19.8486 19.2392 19.6396H21.2808C21.9355 19.6396 22.5147 19.3123 22.8645 18.8129L24.703 19.4054L25.9974 21.7109C25.7062 22.0165 25.5269 22.4296 25.5269 22.8841C25.5269 23.8229 26.2907 24.5867 27.2295 24.5867C28.1683 24.5867 28.9321 23.8229 28.9321 22.8841C28.9321 21.9452 28.1683 21.1815 27.2295 21.1815C27.1058 21.1815 26.9852 21.1951 26.8688 21.2203L25.4789 18.7449C25.4172 18.635 25.3162 18.5524 25.1963 18.5138L23.2062 17.8724C23.2109 17.8177 23.2138 17.7625 23.2138 17.7066V16.6998H25.8653L26.747 17.5636C26.6255 17.7978 26.5564 18.0633 26.5564 18.3449C26.5564 19.2837 27.3202 20.0475 28.259 20.0475C29.1978 20.0475 29.9616 19.2837 29.9616 18.3449C29.9616 17.4061 29.1978 16.6423 28.259 16.6423C27.965 16.6423 27.6882 16.7172 27.4466 16.8489L26.4193 15.8426C26.3259 15.751 26.2003 15.6997 26.0694 15.6997H23.2138V13.8726H26.6314V13.8727ZM28.259 12.6701C28.6464 12.6701 28.9616 12.9852 28.9616 13.3727C28.9616 13.7601 28.6464 14.0752 28.259 14.0752C27.8716 14.0752 27.5564 13.7601 27.5564 13.3727C27.5564 12.9852 27.8716 12.6701 28.259 12.6701ZM28.259 7.69775C28.6464 7.69775 28.9616 8.01294 28.9616 8.40038C28.9616 8.78775 28.6464 9.10294 28.259 9.10294C27.8716 9.10294 27.5564 8.78775 27.5564 8.40038C27.5564 8.01294 27.8716 7.69775 28.259 7.69775ZM27.2296 3.15862C27.617 3.15862 27.9322 3.47381 27.9322 3.86125C27.9322 4.24869 27.617 4.56388 27.2296 4.56388C26.8422 4.56388 26.527 4.24869 26.527 3.86125C26.527 3.47381 26.8422 3.15862 27.2296 3.15862ZM4.06466 3.86125C4.06466 3.47381 4.37984 3.15862 4.76722 3.15862C5.15466 3.15862 5.46984 3.47381 5.46984 3.86125C5.46984 4.24869 5.15466 4.56381 4.76722 4.56381C4.37984 4.56381 4.06466 4.24869 4.06466 3.86125ZM3.73778 9.10294C3.35041 9.10294 3.03522 8.78775 3.03522 8.40038C3.03522 8.01294 3.35041 7.69775 3.73778 7.69775C4.12522 7.69775 4.44041 8.01294 4.44041 8.40038C4.44041 8.78775 4.12522 9.10294 3.73778 9.10294ZM3.73778 14.0752C3.35041 14.0752 3.03522 13.7601 3.03522 13.3727C3.03522 12.9852 3.35041 12.6701 3.73778 12.6701C4.12522 12.6701 4.44041 12.9852 4.44041 13.3727C4.44041 13.7601 4.12522 14.0752 3.73778 14.0752ZM3.73778 19.0476C3.35041 19.0476 3.03522 18.7324 3.03522 18.345C3.03522 17.9576 3.35041 17.6424 3.73778 17.6424C4.12522 17.6424 4.44041 17.9576 4.44041 18.345C4.44041 18.7324 4.12522 19.0476 3.73778 19.0476ZM4.76722 23.5867C4.37984 23.5867 4.06466 23.2715 4.06466 22.8841C4.06466 22.4967 4.37984 22.1815 4.76722 22.1815C5.15466 22.1815 5.46984 22.4967 5.46984 22.8841C5.46984 23.2715 5.15466 23.5867 4.76722 23.5867ZM27.9322 22.8841C27.9322 23.2716 27.617 23.5868 27.2296 23.5868C26.8422 23.5868 26.527 23.2716 26.527 22.8841C26.527 22.4967 26.8422 22.1816 27.2296 22.1816C27.617 22.1815 27.9322 22.4967 27.9322 22.8841ZM28.259 17.6424C28.6464 17.6424 28.9616 17.9576 28.9616 18.345C28.9616 18.7324 28.6464 19.0476 28.259 19.0476C27.8716 19.0476 27.5564 18.7324 27.5564 18.345C27.5564 17.9576 27.8716 17.6424 28.259 17.6424ZM11.8399 5.17725C11.8399 2.90838 13.6858 1.0625 15.9548 1.0625C18.2237 1.0625 20.0696 2.90838 20.0696 5.17725V7.10569H18.8762V5.17725C18.8762 3.56644 17.5656 2.25588 15.9548 2.25588C14.3439 2.25588 13.0333 3.56637 13.0333 5.17725V7.10569H11.8399V5.17725ZM17.8762 7.10575H14.0333V5.17725C14.0333 4.11781 14.8953 3.25588 15.9548 3.25588C17.0142 3.25588 17.8762 4.11781 17.8762 5.17725V7.10575ZM16.641 13.4366C16.4317 13.3385 16.1983 13.2833 15.9523 13.2833C15.7073 13.2833 15.475 13.338 15.2664 13.4353C14.9235 13.2064 14.7148 12.8228 14.7148 12.4048C14.7148 11.7212 15.271 11.165 15.9547 11.165C16.6384 11.165 17.1945 11.7212 17.1945 12.4048C17.1946 12.8236 16.9852 13.2079 16.641 13.4366ZM15.145 30.9375V30.5289H22.0555V30.9375H15.145ZM20.4652 21.3046C20.8116 21.3046 21.0934 21.5864 21.0934 21.9328V23.4853C21.0934 23.7614 21.3173 23.9853 21.5934 23.9853C21.8695 23.9853 22.0934 23.7614 22.0934 23.4853V22.936C22.0934 22.5896 22.3752 22.3078 22.7217 22.3078C23.068 22.3078 23.3498 22.5896 23.3498 22.9359L23.3498 24.4677C23.3497 25.4901 23.2418 27.9601 22.2843 29.5288H15.0754C14.8438 28.2617 14.2644 27.304 13.4912 26.0299C12.878 25.0193 12.1148 23.7616 11.3073 21.9562C11.1058 21.5057 11.1477 21.1108 11.4142 20.9501C11.6478 20.8092 12.0468 20.8752 12.4115 21.3406L14.4305 23.9169C14.562 24.0848 14.7856 24.1506 14.9872 24.0811C15.1888 24.0115 15.3241 23.8217 15.3241 23.6084V14.9116C15.3241 14.5652 15.6059 14.2833 15.9523 14.2833C16.2987 14.2833 16.5805 14.5651 16.5805 14.9116L16.5805 23.0808C16.5805 23.3569 16.8043 23.5808 17.0805 23.5808C17.3566 23.5808 17.5805 23.3569 17.5805 23.0808V20.8978C17.5805 20.5514 17.8623 20.2695 18.2087 20.2695C18.5552 20.2695 18.837 20.5513 18.837 20.8978V23.4853C18.837 23.7614 19.0608 23.9853 19.337 23.9853C19.6131 23.9853 19.837 23.7614 19.837 23.4853V21.9328C19.8369 21.5863 20.1187 21.3046 20.4652 21.3046ZM22.2138 17.7067C22.2138 18.2211 21.7953 18.6396 21.2808 18.6396H17.5804L17.5805 14.9116C17.5805 14.6293 17.5082 14.3637 17.3813 14.132C17.8914 13.7115 18.1945 13.0828 18.1945 12.4048C18.1945 11.1698 17.1898 10.165 15.9547 10.165C14.7197 10.165 13.7148 11.1698 13.7148 12.4048C13.7148 13.0814 14.0167 13.7087 14.5248 14.1292C14.397 14.3616 14.324 14.6282 14.324 14.9116V18.6396H10.6285C10.1141 18.6396 9.69553 18.2211 9.69553 17.7067V9.03869C9.69553 8.52425 10.114 8.10575 10.6285 8.10575H21.2809C21.7953 8.10575 22.2139 8.52425 22.2139 9.03869V17.7067H22.2138Z" fill="#18181B"/>
</svg>
