<svg width="32" height="20" viewBox="0 0 32 20" fill="none" xmlns="http://www.w3.org/2000/svg">
<g clip-path="url(#clip0_2792_11580)">
<path d="M29.5501 0.349609H2.4501C1.2903 0.349609 0.350098 1.28981 0.350098 2.44961V17.5496C0.350098 18.7094 1.2903 19.6496 2.4501 19.6496H29.5501C30.7099 19.6496 31.6501 18.7094 31.6501 17.5496V2.44961C31.6501 1.28981 30.7099 0.349609 29.5501 0.349609Z" fill="white" stroke="#18181B" stroke-width="0.7"/>
<path d="M9.31009 6.54603C9.57444 6.20615 9.76327 5.75298 9.70662 5.2998C9.31009 5.31869 8.83804 5.56416 8.55481 5.88515C8.30934 6.16838 8.08275 6.64044 8.1394 7.07473C8.59257 7.13138 9.02686 6.88591 9.31009 6.54603ZM9.70662 7.18802C9.06463 7.15026 8.51704 7.54678 8.21493 7.54678C7.91281 7.54678 7.44076 7.2069 6.93094 7.2069C6.27006 7.22579 5.66583 7.58455 5.32596 8.18878C4.6462 9.37835 5.13713 11.1344 5.81689 12.0974C6.13789 12.5694 6.53441 13.0981 7.04423 13.0793C7.53517 13.0604 7.72399 12.7583 8.30934 12.7583C8.89469 12.7583 9.06463 13.0793 9.59333 13.0604C10.122 13.0415 10.4619 12.5883 10.7829 12.0974C11.1605 11.5498 11.3116 11.0211 11.3116 11.0022C11.2927 10.9833 10.2731 10.6057 10.2731 9.435C10.2542 8.45313 11.0661 7.98107 11.1039 7.96219C10.6696 7.28243 9.95209 7.2069 9.70662 7.18802ZM15.258 5.84739C16.6553 5.84739 17.6183 6.81038 17.6183 8.18878C17.6183 9.58606 16.6364 10.549 15.2202 10.549H13.6908V12.9848H12.5767V5.84739H15.258ZM13.6908 9.62382H14.9559C15.9189 9.62382 16.4664 9.09512 16.4664 8.20766C16.4664 7.30132 15.9189 6.7915 14.9559 6.7915H13.6719V9.62382H13.6908ZM17.9015 11.5309C17.9015 10.6246 18.6001 10.0581 19.8463 9.98258L21.2814 9.90706V9.51053C21.2814 8.92518 20.8849 8.5853 20.2429 8.5853C19.6198 8.5853 19.2421 8.88742 19.1477 9.34059H18.1281C18.1847 8.39648 18.9966 7.69784 20.2806 7.69784C21.5457 7.69784 22.3577 8.35872 22.3577 9.41612V13.0037H21.338V12.154H21.3192C21.017 12.7394 20.3562 13.0981 19.6764 13.0981C18.619 13.0981 17.9015 12.4561 17.9015 11.5309ZM21.2814 11.0589V10.6435L19.9974 10.719C19.3554 10.7568 18.9966 11.04 18.9966 11.4932C18.9966 11.9463 19.3743 12.2484 19.9408 12.2484C20.696 12.2484 21.2814 11.7386 21.2814 11.0589ZM23.3018 14.9297V14.0611C23.3773 14.08 23.5661 14.08 23.6417 14.08C24.1326 14.08 24.397 13.8723 24.5669 13.3436C24.5669 13.3247 24.6613 13.0226 24.6613 13.0226L22.7731 7.81113H23.9249L25.2467 12.0596H25.2655L26.5873 7.81113H27.7202L25.7754 13.3058C25.3222 14.571 24.8124 14.9675 23.7361 14.9675C23.6605 14.9486 23.3962 14.9486 23.3018 14.9297Z" fill="#18181B"/>
</g>
<defs>
<clipPath id="clip0_2792_11580">
<rect width="32" height="20" fill="white"/>
</clipPath>
</defs>
</svg>
