<svg width="32" height="20" viewBox="0 0 32 20" fill="none" xmlns="http://www.w3.org/2000/svg">
<g clip-path="url(#clip0_2792_11561)">
<path d="M20.355 2.1543H11.708V17.6943H20.355V2.1543Z" fill="#FF5F00"/>
<path d="M12.2567 9.92563C12.2534 6.89278 13.6453 4.02698 16.0311 2.15445C11.9794 -1.02977 6.16092 -0.565964 2.66481 3.21992C-0.831303 7.00581 -0.831303 12.8427 2.66481 16.6286C6.16092 20.4145 11.9794 20.8783 16.0311 17.6941C13.6461 15.8221 12.2543 12.9575 12.2567 9.92563Z" fill="#EB001B"/>
<path d="M32.0208 9.92573C32.0208 13.7093 29.8603 17.1607 26.4571 18.8141C23.0539 20.4675 19.0054 20.0326 16.031 17.6942C18.415 15.8206 19.8069 12.9564 19.8069 9.92436C19.8069 6.8923 18.415 4.02807 16.031 2.15454C19.0054 -0.183922 23.0539 -0.618801 26.4571 1.0346C29.8603 2.688 32.0208 6.1394 32.0208 9.92298V9.92573ZM31.1362 16.7381V15.8472H31.3042V15.6628H30.8789V15.8472H31.0612V16.7381H31.1362ZM31.9618 16.7381V15.6628H31.8332L31.6831 16.4309L31.5329 15.6628H31.4186V16.7381H31.5115V15.9317L31.6509 16.6306H31.7474L31.8868 15.9317V16.7458L31.9618 16.7381Z" fill="#F79E1B"/>
</g>
<defs>
<clipPath id="clip0_2792_11561">
<rect width="32" height="20" fill="white"/>
</clipPath>
</defs>
</svg>
