<svg width="30" height="20" viewBox="0 0 30 20" fill="none" xmlns="http://www.w3.org/2000/svg">
<path d="M26.619 17.1958L25.381 15.8148L24.0953 17.1958H21.5714H16.1428V10.7672H13.619L16.7619 3.57672H19.8094L20.9047 6.05292V3.57672H24.7143L25.381 5.43388L26.0477 3.57672H28.9524V2.48149C28.9524 1.81483 28.4286 1.29102 27.762 1.29102H2.23808C1.57142 1.29102 1.04761 1.81483 1.04761 2.48149V17.9577C1.04761 18.6244 1.57142 19.1482 2.23808 19.1482H27.762C28.4286 19.1482 28.9524 18.6244 28.9524 17.9577V17.1958H26.619Z" fill="#0071CE"/>
<path d="M26.9524 16.4337H28.9524L26.3334 13.6242L28.9524 10.8623H27L25.3334 12.6718L23.7144 10.8623H21.7144L24.381 13.6718L21.7144 16.4337H23.6667L25.3334 14.6242L26.9524 16.4337Z" fill="#0071CE"/>
<path d="M18.5238 15.148V14.2909H21.6666V13.0051H18.5238V12.148H21.7143V10.8623H17V16.4337H21.7143V15.148H18.5238Z" fill="#0071CE"/>
<path d="M27.4763 10.0526H28.9049V4.43359L26.6191 4.4812L25.381 7.9574L24.0953 4.4812H21.7144V10.0526H23.2383V6.14787L24.6667 10.0526H26L27.4763 6.14787V10.0526Z" fill="#0071CE"/>
<path d="M19.2857 4.48145H17.3334L14.8572 10.0529H16.5238L17 8.95764H19.5715L20.0477 10.0529H21.762L19.2857 4.48145ZM17.5238 7.67192L18.2857 5.86241L19.0476 7.67192H17.5238Z" fill="#0071CE"/>
<path d="M27.5713 13.4818L28.9523 15.0056V11.958L27.5713 13.4818Z" fill="#0071CE"/>
</svg>
