<svg width="82" height="20" viewBox="0 0 82 20" fill="none" xmlns="http://www.w3.org/2000/svg">
<g clip-path="url(#clip0_2792_11586)">
<path fill-rule="evenodd" clip-rule="evenodd" d="M7.0989 4.63965H12.658C15.6427 4.63965 16.7663 6.15067 16.5927 8.37057C16.3057 12.0355 14.0901 14.0631 11.1513 14.0631H9.66749C9.26427 14.0631 8.99306 14.33 8.884 15.0532L8.25405 19.2577C8.21244 19.5303 8.06894 19.6882 7.85369 19.7097H4.36098C4.03237 19.7097 3.91614 19.4586 4.00224 18.9147L6.13173 5.43606C6.21496 4.89651 6.51056 4.63965 7.0989 4.63965Z" fill="#009EE3"/>
<path fill-rule="evenodd" clip-rule="evenodd" d="M31.2337 4.38965C33.1092 4.38965 34.8397 5.40704 34.603 7.94263C34.316 10.9561 32.7016 12.6235 30.1546 12.6307H27.9289C27.6089 12.6307 27.4539 12.8918 27.3707 13.4271L26.9402 16.1636C26.8757 16.5768 26.6633 16.7806 26.3505 16.7806H24.2798C23.9497 16.7806 23.835 16.5697 23.9081 16.0976L25.6172 5.13009C25.7018 4.59054 25.9042 4.38965 26.273 4.38965H31.2293H31.2337ZM27.8615 10.2615H29.5476C30.6023 10.2214 31.3025 9.49096 31.3728 8.17366C31.4159 7.36003 30.8663 6.77744 29.9924 6.78172L28.4053 6.78892L27.8615 10.2615ZM40.2323 15.9412C40.4218 15.769 40.614 15.68 40.5868 15.8924L40.5193 16.4003C40.4849 16.6658 40.5897 16.8064 40.8365 16.8064H42.6761C42.9861 16.8064 43.1367 16.6816 43.2128 16.2023L44.3464 9.08774C44.4038 8.73043 44.3163 8.55536 44.0451 8.55536H42.0218C41.8395 8.55536 41.7505 8.65725 41.7032 8.93563L41.6286 9.3733C41.5898 9.60146 41.4851 9.64164 41.3875 9.41204C41.0445 8.59985 40.1692 8.23537 38.948 8.26407C36.1111 8.3229 34.1983 10.4768 33.9931 13.2377C33.8353 15.3729 35.3649 17.0504 37.3825 17.0504C38.8462 17.0504 39.5005 16.6199 40.2381 15.9455L40.2323 15.9412ZM38.6912 14.8463C37.47 14.8463 36.6191 13.8719 36.7956 12.678C36.9721 11.4841 38.1143 10.5098 39.3355 10.5098C40.5566 10.5098 41.4076 11.4841 41.2311 12.678C41.0546 13.8719 39.9138 14.8463 38.6912 14.8463ZM47.9467 8.5324H46.0813C45.6967 8.5324 45.5403 8.8194 45.6623 9.1724L47.9783 15.9541L45.7068 19.1813C45.5159 19.4511 45.6637 19.6965 45.932 19.6965H48.0285C48.2781 19.7253 48.5215 19.6059 48.6513 19.3908L55.7745 9.17384C55.994 8.85958 55.8907 8.52953 55.5306 8.52953H53.546C53.2059 8.52953 53.0696 8.66442 52.8744 8.94711L49.904 13.252L48.5767 8.93707C48.4992 8.6759 48.3055 8.5324 47.9482 8.5324H47.9467Z" fill="#113984"/>
<path fill-rule="evenodd" clip-rule="evenodd" d="M63.1846 4.38959C65.0601 4.38959 66.7907 5.40698 66.5539 7.94257C66.2669 10.956 64.6526 12.6234 62.1055 12.6306H59.8813C59.5613 12.6306 59.4063 12.8918 59.3231 13.427L58.8926 16.1635C58.828 16.5768 58.6157 16.7805 58.3028 16.7805H56.2322C55.9021 16.7805 55.7873 16.5696 55.8605 16.0975L57.5724 5.12716C57.6571 4.58761 57.8594 4.38672 58.2282 4.38672H63.1846V4.38959ZM59.8124 10.2615H61.4985C62.5532 10.2213 63.2535 9.4909 63.3238 8.1736C63.3669 7.35997 62.8173 6.77738 61.9434 6.78166L60.3563 6.78886L59.8124 10.2615ZM72.1833 15.9411C72.3727 15.7689 72.565 15.6799 72.5377 15.8923L72.4703 16.4003C72.4359 16.6658 72.5406 16.8064 72.7874 16.8064H74.6271C74.937 16.8064 75.0877 16.6815 75.1637 16.2023L76.2974 9.08768C76.3548 8.73037 76.2672 8.5553 75.996 8.5553H73.9756C73.7933 8.5553 73.7044 8.65719 73.657 8.93557L73.5824 9.37324C73.5436 9.6014 73.4389 9.64158 73.3413 9.41198C72.9984 8.59979 72.123 8.23531 70.9019 8.26401C68.0649 8.32284 66.1521 10.4767 65.9469 13.2376C65.7891 15.3728 67.3188 17.0503 69.3363 17.0503C70.8 17.0503 71.4543 16.6198 72.1919 15.9454L72.1833 15.9411ZM70.6436 14.8462C69.4224 14.8462 68.5715 13.8719 68.748 12.678C68.9245 11.4841 70.0667 10.5097 71.2879 10.5097C72.509 10.5097 73.36 11.4841 73.1835 12.678C73.007 13.8719 71.8647 14.8462 70.6436 14.8462ZM79.1286 16.8179H77.0048C76.93 16.8212 76.8576 16.791 76.8074 16.7355C76.7571 16.68 76.7343 16.605 76.7451 16.5309L78.6105 4.71246C78.6472 4.54638 78.7935 4.42746 78.9635 4.42546H81.0873C81.1621 4.42212 81.2345 4.45232 81.2847 4.50783C81.3349 4.56334 81.3578 4.63837 81.347 4.71246L79.4816 16.5309C79.446 16.6981 79.2995 16.8184 79.1286 16.8207V16.8179Z" fill="#009EE3"/>
<path fill-rule="evenodd" clip-rule="evenodd" d="M3.62162 0H9.18643C10.7534 0 12.6131 0.0502239 13.8558 1.14798C14.6867 1.88124 15.1229 3.04787 15.0224 4.30491C14.6809 8.55385 12.1396 10.9345 8.73011 10.9345H5.98645C5.51865 10.9345 5.21013 11.2444 5.07811 12.0824L4.31184 16.9613C4.26162 17.277 4.12529 17.4636 3.88135 17.4865H0.447468C0.0672013 17.4865 -0.0676858 17.1995 0.0313271 16.5653L2.49947 0.92699C2.59849 0.298474 2.94431 0 3.62162 0Z" fill="#113984"/>
<path fill-rule="evenodd" clip-rule="evenodd" d="M5.15869 11.5873L6.13017 5.43554C6.21483 4.89599 6.51043 4.6377 7.09877 4.6377H12.6578C13.5777 4.6377 14.3224 4.78119 14.905 5.04666C14.3468 8.82924 11.9002 10.93 8.69733 10.93H5.95797C5.59062 10.9315 5.32084 11.1151 5.15869 11.5873Z" fill="#172C70"/>
</g>
<defs>
<clipPath id="clip0_2792_11586">
<rect width="82" height="20" fill="white"/>
</clipPath>
</defs>
</svg>
