<svg width="32" height="20" viewBox="0 0 32 20" fill="none" xmlns="http://www.w3.org/2000/svg">
<path d="M12.1635 5.23607L7.98992 14.7874H5.26694L3.21308 7.165C3.08838 6.69551 2.97996 6.52351 2.60074 6.32571C1.9816 6.00353 0.959151 5.70126 0.0595703 5.51366L0.120671 5.23607H4.50384C5.06255 5.23607 5.5648 5.59281 5.69166 6.20993L6.77637 11.7368L9.45718 5.23591L12.1635 5.23607ZM22.8327 11.669C22.8437 9.14807 19.1985 9.00919 19.2235 7.88309C19.2313 7.54036 19.5715 7.17598 20.3162 7.08298C20.6852 7.03664 21.7023 7.00129 22.8558 7.51042L23.3083 5.48499C22.6883 5.26919 21.891 5.06152 20.8986 5.06152C18.3526 5.06152 16.5607 6.35979 16.5456 8.21879C16.5291 9.59383 17.8245 10.3611 18.8006 10.818C19.8045 11.2859 20.1414 11.5866 20.1376 12.0051C20.1305 12.6458 19.3368 12.9287 18.5951 12.9398C17.3004 12.9589 16.549 12.6038 15.9502 12.3367L15.4833 14.4292C16.0851 14.6941 17.1961 14.9251 18.3479 14.9368C21.0542 14.9368 22.8243 13.6546 22.8327 11.669ZM29.556 14.7874H31.9385L29.859 5.23607H27.6599C27.1655 5.23607 26.7485 5.51222 26.5638 5.9368L22.6983 14.7874H25.4032L25.9402 13.3607H29.2452L29.556 14.7874ZM26.6818 11.4032L28.0376 7.81699L28.8181 11.4032H26.6818ZM15.8441 5.23607L13.714 14.7874H11.1381L13.269 5.23607H15.8441Z" fill="#1434CB"/>
</svg>
