<svg width="52" height="34" viewBox="0 0 52 34" fill="none" xmlns="http://www.w3.org/2000/svg">
<rect x="0.5" width="51" height="34" rx="3.4" fill="white"/>
<path fill-rule="evenodd" clip-rule="evenodd" d="M33.7768 11.6713C33.7562 11.8049 33.7323 11.9413 33.7057 12.0816C32.7865 16.82 29.6417 18.457 25.6255 18.457H23.5805C23.0893 18.457 22.6753 18.815 22.599 19.3015L21.2554 27.8582C21.2057 28.1778 21.4509 28.4655 21.7718 28.4655H25.3988C25.8282 28.4655 26.1931 28.1523 26.2607 27.727L26.2963 27.542L26.9792 23.1908L27.0232 22.9522C27.09 22.5254 27.4557 22.212 27.8851 22.212H28.4275C31.9415 22.212 34.6924 20.7796 35.4965 16.6342C35.8322 14.9026 35.6584 13.4567 34.7697 12.4398C34.5007 12.1332 34.1671 11.8786 33.7768 11.6713Z" fill="#298FC2"/>
<path fill-rule="evenodd" clip-rule="evenodd" d="M32.8149 11.2865C32.6744 11.2453 32.5296 11.2081 32.381 11.1744C32.2315 11.1416 32.0785 11.1126 31.921 11.0871C31.3696 10.9976 30.7654 10.9552 30.1183 10.9552H24.6553C24.5206 10.9552 24.3928 10.9857 24.2785 11.0409C24.0265 11.1625 23.8394 11.402 23.794 11.6952L22.6317 19.0861L22.5984 19.3015C22.6748 18.815 23.0888 18.457 23.58 18.457H25.625C29.6412 18.457 32.786 16.8192 33.7051 12.0816C33.7326 11.9414 33.7557 11.8049 33.7763 11.6714C33.5438 11.5475 33.292 11.4415 33.0208 11.3512C32.9538 11.3289 32.8846 11.3074 32.8149 11.2865Z" fill="#22284F"/>
<path fill-rule="evenodd" clip-rule="evenodd" d="M23.794 11.6952C23.8394 11.402 24.0268 11.1625 24.2788 11.0418C24.3939 10.9864 24.5209 10.9559 24.6555 10.9559H30.1185C30.7657 10.9559 31.3699 10.9985 31.9212 11.0879C32.0788 11.1132 32.2318 11.1425 32.3812 11.1753C32.5298 11.2087 32.6747 11.2461 32.8152 11.2871C32.8849 11.308 32.954 11.3297 33.0217 11.3513C33.2929 11.4415 33.5449 11.5483 33.7774 11.6714C34.0509 9.92036 33.7751 8.72812 32.8323 7.64852C31.7926 6.45983 29.9164 5.95117 27.5156 5.95117H20.5454C20.0551 5.95117 19.6367 6.30916 19.5609 6.7965L16.6578 25.2732C16.6006 25.6387 16.8814 25.9685 17.2485 25.9685H21.5516L23.794 11.6952Z" fill="#28356A"/>
</svg>
