<svg width="24" height="24" viewBox="0 0 24 24" fill="none" xmlns="http://www.w3.org/2000/svg">
<path d="M11.9982 2C8.99043 2 7.04018 4.01899 4.73371 4.7549C3.79589 5.05413 3.32697 5.20374 3.1372 5.41465C2.94743 5.62556 2.89186 5.93375 2.78072 6.55013C1.59143 13.146 4.1909 19.244 10.3903 21.6175C11.0564 21.8725 11.3894 22 12.0015 22C12.6135 22 12.9466 21.8725 13.6126 21.6175C19.8116 19.2439 22.4086 13.146 21.219 6.55013C21.1078 5.93364 21.0522 5.6254 20.8624 5.41449C20.6726 5.20358 20.2037 5.05405 19.2659 4.75499C16.9585 4.01915 15.0061 2 11.9982 2Z" stroke="#27272A" stroke-linecap="round" stroke-linejoin="round"/>
<path d="M9.5803 15.8573L9.37748 16.3143H9.37748L9.5803 15.8573ZM8.63321 14.8425L8.16685 15.0228H8.16685L8.63321 14.8425ZM15.3668 14.8425L15.8332 15.0228L15.3668 14.8425ZM14.4197 15.8573L14.6225 16.3143H14.6225L14.4197 15.8573ZM14.4197 10.5177L14.6225 10.0607L14.4197 10.5177ZM15.3668 11.5325L15.8332 11.3522V11.3522L15.3668 11.5325ZM9.5803 10.5177L9.37748 10.0607H9.37748L9.5803 10.5177ZM8.63321 11.5325L8.16685 11.3522H8.16685L8.63321 11.5325ZM9.75 10.375C9.75 10.6511 9.97386 10.875 10.25 10.875C10.5261 10.875 10.75 10.6511 10.75 10.375H9.75ZM13.25 10.375C13.25 10.6511 13.4739 10.875 13.75 10.875C14.0261 10.875 14.25 10.6511 14.25 10.375H13.25ZM11.125 10.375V10.875H12.875V10.375V9.875H11.125V10.375ZM12.875 16V15.5H11.125V16L11.125 16.5H12.875V16ZM11.125 16V15.5C10.71 15.5 10.4255 15.4997 10.2039 15.4835C9.98755 15.4677 9.86957 15.4386 9.78313 15.4003L9.5803 15.8573L9.37748 16.3143C9.61263 16.4186 9.8593 16.461 10.131 16.4808C10.3975 16.5003 10.7246 16.5 11.125 16.5L11.125 16ZM8.5 13.1875H8C8 13.6179 7.99976 13.9641 8.01766 14.2452C8.03581 14.5301 8.07405 14.7828 8.16685 15.0228L8.63321 14.8425L9.09957 14.6622C9.05916 14.5577 9.0308 14.4197 9.01564 14.1816C9.00024 13.9397 9 13.6307 9 13.1875H8.5ZM9.5803 15.8573L9.78313 15.4003C9.48191 15.2666 9.2321 15.005 9.09957 14.6622L8.63321 14.8425L8.16685 15.0228C8.38955 15.5989 8.8211 16.0674 9.37748 16.3143L9.5803 15.8573ZM15.5 13.1875H15C15 13.6307 14.9998 13.9397 14.9844 14.1816C14.9692 14.4197 14.9408 14.5577 14.9004 14.6622L15.3668 14.8425L15.8332 15.0228C15.926 14.7828 15.9642 14.5301 15.9823 14.2452C16.0002 13.9641 16 13.6179 16 13.1875H15.5ZM12.875 16V16.5C13.2754 16.5 13.6025 16.5003 13.869 16.4808C14.1407 16.461 14.3874 16.4186 14.6225 16.3143L14.4197 15.8573L14.2169 15.4003C14.1304 15.4386 14.0124 15.4677 13.7961 15.4835C13.5745 15.4997 13.29 15.5 12.875 15.5V16ZM15.3668 14.8425L14.9004 14.6622C14.7679 15.005 14.5181 15.2666 14.2169 15.4003L14.4197 15.8573L14.6225 16.3143C15.1789 16.0674 15.6104 15.5989 15.8332 15.0228L15.3668 14.8425ZM12.875 10.375V10.875C13.29 10.875 13.5745 10.8753 13.7961 10.8915C14.0124 10.9073 14.1304 10.9364 14.2169 10.9747L14.4197 10.5177L14.6225 10.0607C14.3874 9.95635 14.1407 9.91403 13.869 9.89417C13.6025 9.87469 13.2754 9.875 12.875 9.875V10.375ZM15.5 13.1875H16C16 12.7571 16.0002 12.4109 15.9823 12.1298C15.9642 11.8449 15.926 11.5922 15.8332 11.3522L15.3668 11.5325L14.9004 11.7128C14.9408 11.8173 14.9692 11.9553 14.9844 12.1934C14.9998 12.4353 15 12.7443 15 13.1875H15.5ZM14.4197 10.5177L14.2169 10.9747C14.5181 11.1084 14.7679 11.37 14.9004 11.7128L15.3668 11.5325L15.8332 11.3522C15.6104 10.7761 15.1789 10.3076 14.6225 10.0607L14.4197 10.5177ZM11.125 10.375V9.875C10.7246 9.875 10.3975 9.87469 10.131 9.89417C9.8593 9.91403 9.61263 9.95635 9.37748 10.0607L9.5803 10.5177L9.78313 10.9747C9.86957 10.9364 9.98755 10.9073 10.2039 10.8915C10.4255 10.8753 10.71 10.875 11.125 10.875V10.375ZM8.5 13.1875H9C9 12.7443 9.00024 12.4353 9.01564 12.1934C9.0308 11.9553 9.05916 11.8173 9.09957 11.7128L8.63321 11.5325L8.16685 11.3522C8.07405 11.5922 8.03581 11.8449 8.01766 12.1298C7.99976 12.4109 8 12.7571 8 13.1875H8.5ZM9.5803 10.5177L9.37748 10.0607C8.8211 10.3076 8.38955 10.7761 8.16685 11.3522L8.63321 11.5325L9.09957 11.7128C9.2321 11.37 9.48191 11.1084 9.78313 10.9747L9.5803 10.5177ZM10.25 10.375H10.75V8.6875H10.25H9.75V10.375H10.25ZM13.75 8.6875H13.25V10.375H13.75H14.25V8.6875H13.75ZM12 7V7.5C12.7077 7.5 13.25 8.04865 13.25 8.6875H13.75H14.25C14.25 7.46239 13.2253 6.5 12 6.5V7ZM10.25 8.6875H10.75C10.75 8.04865 11.2923 7.5 12 7.5V7V6.5C10.7747 6.5 9.75 7.46239 9.75 8.6875H10.25Z" fill="#27272A"/>
</svg>
